<?xml version="1.0" encoding="utf-8" standalone="no"?>
<!DOCTYPE svg PUBLIC "-//W3C//DTD SVG 1.1//EN"
  "http://www.w3.org/Graphics/SVG/1.1/DTD/svg11.dtd">
<svg xmlns:xlink="http://www.w3.org/1999/xlink" width="460.8pt" height="345.6pt" viewBox="0 0 460.8 345.6" xmlns="http://www.w3.org/2000/svg" version="1.1">
 <metadata>
  <rdf:RDF xmlns:dc="http://purl.org/dc/elements/1.1/" xmlns:cc="http://creativecommons.org/ns#" xmlns:rdf="http://www.w3.org/1999/02/22-rdf-syntax-ns#">
   <cc:Work>
    <dc:type rdf:resource="http://purl.org/dc/dcmitype/StillImage"/>
    <dc:date>2023-06-19T11:45:11.278188</dc:date>
    <dc:format>image/svg+xml</dc:format>
    <dc:creator>
     <cc:Agent>
      <dc:title>Matplotlib v3.6.2, https://matplotlib.org/</dc:title>
     </cc:Agent>
    </dc:creator>
   </cc:Work>
  </rdf:RDF>
 </metadata>
 <defs>
  <style type="text/css">*{stroke-linejoin: round; stroke-linecap: butt}</style>
 </defs>
 <g id="figure_1">
  <g id="patch_1">
   <path d="M 0 345.6 
L 460.8 345.6 
L 460.8 0 
L 0 0 
z
" style="fill: #ffffff"/>
  </g>
  <g id="axes_1">
   <g id="patch_2">
    <path d="M 57.6 276.48 
L 414.72 276.48 
L 414.72 41.472 
L 57.6 41.472 
z
" style="fill: #ffffff"/>
   </g>
   <g id="matplotlib.axis_1">
    <g id="xtick_1">
     <g id="line2d_1">
      <defs>
       <path id="m123acf64f3" d="M 0 0 
L 0 3.5 
" style="stroke: #000000; stroke-width: 0.8"/>
      </defs>
      <g>
       <use xlink:href="#m123acf64f3" x="63.750288" y="276.48" style="stroke: #000000; stroke-width: 0.8"/>
      </g>
     </g>
     <g id="text_1">
      <!-- Dec -->
      <g transform="translate(45.951499 299.736221) rotate(-30) scale(0.1 -0.1)">
       <defs>
        <path id="DejaVuSans-44" d="M 1259 4147 
L 1259 519 
L 2022 519 
Q 2988 519 3436 956 
Q 3884 1394 3884 2338 
Q 3884 3275 3436 3711 
Q 2988 4147 2022 4147 
L 1259 4147 
z
M 628 4666 
L 1925 4666 
Q 3281 4666 3915 4102 
Q 4550 3538 4550 2338 
Q 4550 1131 3912 565 
Q 3275 0 1925 0 
L 628 0 
L 628 4666 
z
" transform="scale(0.015625)"/>
        <path id="DejaVuSans-65" d="M 3597 1894 
L 3597 1613 
L 953 1613 
Q 991 1019 1311 708 
Q 1631 397 2203 397 
Q 2534 397 2845 478 
Q 3156 559 3463 722 
L 3463 178 
Q 3153 47 2828 -22 
Q 2503 -91 2169 -91 
Q 1331 -91 842 396 
Q 353 884 353 1716 
Q 353 2575 817 3079 
Q 1281 3584 2069 3584 
Q 2775 3584 3186 3129 
Q 3597 2675 3597 1894 
z
M 3022 2063 
Q 3016 2534 2758 2815 
Q 2500 3097 2075 3097 
Q 1594 3097 1305 2825 
Q 1016 2553 972 2059 
L 3022 2063 
z
" transform="scale(0.015625)"/>
        <path id="DejaVuSans-63" d="M 3122 3366 
L 3122 2828 
Q 2878 2963 2633 3030 
Q 2388 3097 2138 3097 
Q 1578 3097 1268 2742 
Q 959 2388 959 1747 
Q 959 1106 1268 751 
Q 1578 397 2138 397 
Q 2388 397 2633 464 
Q 2878 531 3122 666 
L 3122 134 
Q 2881 22 2623 -34 
Q 2366 -91 2075 -91 
Q 1284 -91 818 406 
Q 353 903 353 1747 
Q 353 2603 823 3093 
Q 1294 3584 2113 3584 
Q 2378 3584 2631 3529 
Q 2884 3475 3122 3366 
z
" transform="scale(0.015625)"/>
       </defs>
       <use xlink:href="#DejaVuSans-44"/>
       <use xlink:href="#DejaVuSans-65" x="77.001953"/>
       <use xlink:href="#DejaVuSans-63" x="138.525391"/>
      </g>
     </g>
    </g>
    <g id="xtick_2">
     <g id="line2d_2">
      <g>
       <use xlink:href="#m123acf64f3" x="93.997606" y="276.48" style="stroke: #000000; stroke-width: 0.8"/>
      </g>
     </g>
     <g id="text_2">
      <!-- Jan -->
      <g transform="translate(79.607439 297.768252) rotate(-30) scale(0.1 -0.1)">
       <defs>
        <path id="DejaVuSans-4a" d="M 628 4666 
L 1259 4666 
L 1259 325 
Q 1259 -519 939 -900 
Q 619 -1281 -91 -1281 
L -331 -1281 
L -331 -750 
L -134 -750 
Q 284 -750 456 -515 
Q 628 -281 628 325 
L 628 4666 
z
" transform="scale(0.015625)"/>
        <path id="DejaVuSans-61" d="M 2194 1759 
Q 1497 1759 1228 1600 
Q 959 1441 959 1056 
Q 959 750 1161 570 
Q 1363 391 1709 391 
Q 2188 391 2477 730 
Q 2766 1069 2766 1631 
L 2766 1759 
L 2194 1759 
z
M 3341 1997 
L 3341 0 
L 2766 0 
L 2766 531 
Q 2569 213 2275 61 
Q 1981 -91 1556 -91 
Q 1019 -91 701 211 
Q 384 513 384 1019 
Q 384 1609 779 1909 
Q 1175 2209 1959 2209 
L 2766 2209 
L 2766 2266 
Q 2766 2663 2505 2880 
Q 2244 3097 1772 3097 
Q 1472 3097 1187 3025 
Q 903 2953 641 2809 
L 641 3341 
Q 956 3463 1253 3523 
Q 1550 3584 1831 3584 
Q 2591 3584 2966 3190 
Q 3341 2797 3341 1997 
z
" transform="scale(0.015625)"/>
        <path id="DejaVuSans-6e" d="M 3513 2113 
L 3513 0 
L 2938 0 
L 2938 2094 
Q 2938 2591 2744 2837 
Q 2550 3084 2163 3084 
Q 1697 3084 1428 2787 
Q 1159 2491 1159 1978 
L 1159 0 
L 581 0 
L 581 3500 
L 1159 3500 
L 1159 2956 
Q 1366 3272 1645 3428 
Q 1925 3584 2291 3584 
Q 2894 3584 3203 3211 
Q 3513 2838 3513 2113 
z
" transform="scale(0.015625)"/>
       </defs>
       <use xlink:href="#DejaVuSans-4a"/>
       <use xlink:href="#DejaVuSans-61" x="29.492188"/>
       <use xlink:href="#DejaVuSans-6e" x="90.771484"/>
      </g>
     </g>
    </g>
    <g id="xtick_3">
     <g id="line2d_3">
      <g>
       <use xlink:href="#m123acf64f3" x="124.244924" y="276.48" style="stroke: #000000; stroke-width: 0.8"/>
      </g>
     </g>
     <g id="text_3">
      <!-- Feb -->
      <g transform="translate(107.873724 298.912002) rotate(-30) scale(0.1 -0.1)">
       <defs>
        <path id="DejaVuSans-46" d="M 628 4666 
L 3309 4666 
L 3309 4134 
L 1259 4134 
L 1259 2759 
L 3109 2759 
L 3109 2228 
L 1259 2228 
L 1259 0 
L 628 0 
L 628 4666 
z
" transform="scale(0.015625)"/>
        <path id="DejaVuSans-62" d="M 3116 1747 
Q 3116 2381 2855 2742 
Q 2594 3103 2138 3103 
Q 1681 3103 1420 2742 
Q 1159 2381 1159 1747 
Q 1159 1113 1420 752 
Q 1681 391 2138 391 
Q 2594 391 2855 752 
Q 3116 1113 3116 1747 
z
M 1159 2969 
Q 1341 3281 1617 3432 
Q 1894 3584 2278 3584 
Q 2916 3584 3314 3078 
Q 3713 2572 3713 1747 
Q 3713 922 3314 415 
Q 2916 -91 2278 -91 
Q 1894 -91 1617 61 
Q 1341 213 1159 525 
L 1159 0 
L 581 0 
L 581 4863 
L 1159 4863 
L 1159 2969 
z
" transform="scale(0.015625)"/>
       </defs>
       <use xlink:href="#DejaVuSans-46"/>
       <use xlink:href="#DejaVuSans-65" x="52.019531"/>
       <use xlink:href="#DejaVuSans-62" x="113.542969"/>
      </g>
     </g>
    </g>
    <g id="xtick_4">
     <g id="line2d_4">
      <g>
       <use xlink:href="#m123acf64f3" x="154.492242" y="276.48" style="stroke: #000000; stroke-width: 0.8"/>
      </g>
     </g>
     <g id="text_4">
      <!-- Mar -->
      <g transform="translate(137.112934 299.494034) rotate(-30) scale(0.1 -0.1)">
       <defs>
        <path id="DejaVuSans-4d" d="M 628 4666 
L 1569 4666 
L 2759 1491 
L 3956 4666 
L 4897 4666 
L 4897 0 
L 4281 0 
L 4281 4097 
L 3078 897 
L 2444 897 
L 1241 4097 
L 1241 0 
L 628 0 
L 628 4666 
z
" transform="scale(0.015625)"/>
        <path id="DejaVuSans-72" d="M 2631 2963 
Q 2534 3019 2420 3045 
Q 2306 3072 2169 3072 
Q 1681 3072 1420 2755 
Q 1159 2438 1159 1844 
L 1159 0 
L 581 0 
L 581 3500 
L 1159 3500 
L 1159 2956 
Q 1341 3275 1631 3429 
Q 1922 3584 2338 3584 
Q 2397 3584 2469 3576 
Q 2541 3569 2628 3553 
L 2631 2963 
z
" transform="scale(0.015625)"/>
       </defs>
       <use xlink:href="#DejaVuSans-4d"/>
       <use xlink:href="#DejaVuSans-61" x="86.279297"/>
       <use xlink:href="#DejaVuSans-72" x="147.558594"/>
      </g>
     </g>
    </g>
    <g id="xtick_5">
     <g id="line2d_5">
      <g>
       <use xlink:href="#m123acf64f3" x="184.73956" y="276.48" style="stroke: #000000; stroke-width: 0.8"/>
      </g>
     </g>
     <g id="text_5">
      <!-- Apr -->
      <g transform="translate(168.717476 298.71044) rotate(-30) scale(0.1 -0.1)">
       <defs>
        <path id="DejaVuSans-41" d="M 2188 4044 
L 1331 1722 
L 3047 1722 
L 2188 4044 
z
M 1831 4666 
L 2547 4666 
L 4325 0 
L 3669 0 
L 3244 1197 
L 1141 1197 
L 716 0 
L 50 0 
L 1831 4666 
z
" transform="scale(0.015625)"/>
        <path id="DejaVuSans-70" d="M 1159 525 
L 1159 -1331 
L 581 -1331 
L 581 3500 
L 1159 3500 
L 1159 2969 
Q 1341 3281 1617 3432 
Q 1894 3584 2278 3584 
Q 2916 3584 3314 3078 
Q 3713 2572 3713 1747 
Q 3713 922 3314 415 
Q 2916 -91 2278 -91 
Q 1894 -91 1617 61 
Q 1341 213 1159 525 
z
M 3116 1747 
Q 3116 2381 2855 2742 
Q 2594 3103 2138 3103 
Q 1681 3103 1420 2742 
Q 1159 2381 1159 1747 
Q 1159 1113 1420 752 
Q 1681 391 2138 391 
Q 2594 391 2855 752 
Q 3116 1113 3116 1747 
z
" transform="scale(0.015625)"/>
       </defs>
       <use xlink:href="#DejaVuSans-41"/>
       <use xlink:href="#DejaVuSans-70" x="68.408203"/>
       <use xlink:href="#DejaVuSans-72" x="131.884766"/>
      </g>
     </g>
    </g>
    <g id="xtick_6">
     <g id="line2d_6">
      <g>
       <use xlink:href="#m123acf64f3" x="214.986877" y="276.48" style="stroke: #000000; stroke-width: 0.8"/>
      </g>
     </g>
     <g id="text_6">
      <!-- May -->
      <g transform="translate(196.041958 300.39794) rotate(-30) scale(0.1 -0.1)">
       <defs>
        <path id="DejaVuSans-79" d="M 2059 -325 
Q 1816 -950 1584 -1140 
Q 1353 -1331 966 -1331 
L 506 -1331 
L 506 -850 
L 844 -850 
Q 1081 -850 1212 -737 
Q 1344 -625 1503 -206 
L 1606 56 
L 191 3500 
L 800 3500 
L 1894 763 
L 2988 3500 
L 3597 3500 
L 2059 -325 
z
" transform="scale(0.015625)"/>
       </defs>
       <use xlink:href="#DejaVuSans-4d"/>
       <use xlink:href="#DejaVuSans-61" x="86.279297"/>
       <use xlink:href="#DejaVuSans-79" x="147.558594"/>
      </g>
     </g>
    </g>
    <g id="xtick_7">
     <g id="line2d_7">
      <g>
       <use xlink:href="#m123acf64f3" x="245.234195" y="276.48" style="stroke: #000000; stroke-width: 0.8"/>
      </g>
     </g>
     <g id="text_7">
      <!-- Jun -->
      <g transform="translate(230.662705 297.87294) rotate(-30) scale(0.1 -0.1)">
       <defs>
        <path id="DejaVuSans-75" d="M 544 1381 
L 544 3500 
L 1119 3500 
L 1119 1403 
Q 1119 906 1312 657 
Q 1506 409 1894 409 
Q 2359 409 2629 706 
Q 2900 1003 2900 1516 
L 2900 3500 
L 3475 3500 
L 3475 0 
L 2900 0 
L 2900 538 
Q 2691 219 2414 64 
Q 2138 -91 1772 -91 
Q 1169 -91 856 284 
Q 544 659 544 1381 
z
M 1991 3584 
L 1991 3584 
z
" transform="scale(0.015625)"/>
       </defs>
       <use xlink:href="#DejaVuSans-4a"/>
       <use xlink:href="#DejaVuSans-75" x="29.492188"/>
       <use xlink:href="#DejaVuSans-6e" x="92.871094"/>
      </g>
     </g>
    </g>
    <g id="xtick_8">
     <g id="line2d_8">
      <g>
       <use xlink:href="#m123acf64f3" x="275.481513" y="276.48" style="stroke: #000000; stroke-width: 0.8"/>
      </g>
     </g>
     <g id="text_8">
      <!-- Jul -->
      <g transform="translate(263.992532 296.093252) rotate(-30) scale(0.1 -0.1)">
       <defs>
        <path id="DejaVuSans-6c" d="M 603 4863 
L 1178 4863 
L 1178 0 
L 603 0 
L 603 4863 
z
" transform="scale(0.015625)"/>
       </defs>
       <use xlink:href="#DejaVuSans-4a"/>
       <use xlink:href="#DejaVuSans-75" x="29.492188"/>
       <use xlink:href="#DejaVuSans-6c" x="92.871094"/>
      </g>
     </g>
    </g>
    <g id="xtick_9">
     <g id="line2d_9">
      <g>
       <use xlink:href="#m123acf64f3" x="305.728831" y="276.48" style="stroke: #000000; stroke-width: 0.8"/>
      </g>
     </g>
     <g id="text_9">
      <!-- Aug -->
      <g transform="translate(287.778488 299.823721) rotate(-30) scale(0.1 -0.1)">
       <defs>
        <path id="DejaVuSans-67" d="M 2906 1791 
Q 2906 2416 2648 2759 
Q 2391 3103 1925 3103 
Q 1463 3103 1205 2759 
Q 947 2416 947 1791 
Q 947 1169 1205 825 
Q 1463 481 1925 481 
Q 2391 481 2648 825 
Q 2906 1169 2906 1791 
z
M 3481 434 
Q 3481 -459 3084 -895 
Q 2688 -1331 1869 -1331 
Q 1566 -1331 1297 -1286 
Q 1028 -1241 775 -1147 
L 775 -588 
Q 1028 -725 1275 -790 
Q 1522 -856 1778 -856 
Q 2344 -856 2625 -561 
Q 2906 -266 2906 331 
L 2906 616 
Q 2728 306 2450 153 
Q 2172 0 1784 0 
Q 1141 0 747 490 
Q 353 981 353 1791 
Q 353 2603 747 3093 
Q 1141 3584 1784 3584 
Q 2172 3584 2450 3431 
Q 2728 3278 2906 2969 
L 2906 3500 
L 3481 3500 
L 3481 434 
z
" transform="scale(0.015625)"/>
       </defs>
       <use xlink:href="#DejaVuSans-41"/>
       <use xlink:href="#DejaVuSans-75" x="68.408203"/>
       <use xlink:href="#DejaVuSans-67" x="131.787109"/>
      </g>
     </g>
    </g>
    <g id="xtick_10">
     <g id="line2d_10">
      <g>
       <use xlink:href="#m123acf64f3" x="335.976149" y="276.48" style="stroke: #000000; stroke-width: 0.8"/>
      </g>
     </g>
     <g id="text_10">
      <!-- Sep -->
      <g transform="translate(318.611726 299.48544) rotate(-30) scale(0.1 -0.1)">
       <defs>
        <path id="DejaVuSans-53" d="M 3425 4513 
L 3425 3897 
Q 3066 4069 2747 4153 
Q 2428 4238 2131 4238 
Q 1616 4238 1336 4038 
Q 1056 3838 1056 3469 
Q 1056 3159 1242 3001 
Q 1428 2844 1947 2747 
L 2328 2669 
Q 3034 2534 3370 2195 
Q 3706 1856 3706 1288 
Q 3706 609 3251 259 
Q 2797 -91 1919 -91 
Q 1588 -91 1214 -16 
Q 841 59 441 206 
L 441 856 
Q 825 641 1194 531 
Q 1563 422 1919 422 
Q 2459 422 2753 634 
Q 3047 847 3047 1241 
Q 3047 1584 2836 1778 
Q 2625 1972 2144 2069 
L 1759 2144 
Q 1053 2284 737 2584 
Q 422 2884 422 3419 
Q 422 4038 858 4394 
Q 1294 4750 2059 4750 
Q 2388 4750 2728 4690 
Q 3069 4631 3425 4513 
z
" transform="scale(0.015625)"/>
       </defs>
       <use xlink:href="#DejaVuSans-53"/>
       <use xlink:href="#DejaVuSans-65" x="63.476562"/>
       <use xlink:href="#DejaVuSans-70" x="125"/>
      </g>
     </g>
    </g>
    <g id="xtick_11">
     <g id="line2d_11">
      <g>
       <use xlink:href="#m123acf64f3" x="366.223467" y="276.48" style="stroke: #000000; stroke-width: 0.8"/>
      </g>
     </g>
     <g id="text_11">
      <!-- Oct -->
      <g transform="translate(350.209503 298.705752) rotate(-30) scale(0.1 -0.1)">
       <defs>
        <path id="DejaVuSans-4f" d="M 2522 4238 
Q 1834 4238 1429 3725 
Q 1025 3213 1025 2328 
Q 1025 1447 1429 934 
Q 1834 422 2522 422 
Q 3209 422 3611 934 
Q 4013 1447 4013 2328 
Q 4013 3213 3611 3725 
Q 3209 4238 2522 4238 
z
M 2522 4750 
Q 3503 4750 4090 4092 
Q 4678 3434 4678 2328 
Q 4678 1225 4090 567 
Q 3503 -91 2522 -91 
Q 1538 -91 948 565 
Q 359 1222 359 2328 
Q 359 3434 948 4092 
Q 1538 4750 2522 4750 
z
" transform="scale(0.015625)"/>
        <path id="DejaVuSans-74" d="M 1172 4494 
L 1172 3500 
L 2356 3500 
L 2356 3053 
L 1172 3053 
L 1172 1153 
Q 1172 725 1289 603 
Q 1406 481 1766 481 
L 2356 481 
L 2356 0 
L 1766 0 
Q 1100 0 847 248 
Q 594 497 594 1153 
L 594 3053 
L 172 3053 
L 172 3500 
L 594 3500 
L 594 4494 
L 1172 4494 
z
" transform="scale(0.015625)"/>
       </defs>
       <use xlink:href="#DejaVuSans-4f"/>
       <use xlink:href="#DejaVuSans-63" x="78.710938"/>
       <use xlink:href="#DejaVuSans-74" x="133.691406"/>
      </g>
     </g>
    </g>
    <g id="xtick_12">
     <g id="line2d_12">
      <g>
       <use xlink:href="#m123acf64f3" x="396.470785" y="276.48" style="stroke: #000000; stroke-width: 0.8"/>
      </g>
     </g>
     <g id="text_12">
      <!-- Nov -->
      <g transform="translate(378.527208 299.819815) rotate(-30) scale(0.1 -0.1)">
       <defs>
        <path id="DejaVuSans-4e" d="M 628 4666 
L 1478 4666 
L 3547 763 
L 3547 4666 
L 4159 4666 
L 4159 0 
L 3309 0 
L 1241 3903 
L 1241 0 
L 628 0 
L 628 4666 
z
" transform="scale(0.015625)"/>
        <path id="DejaVuSans-6f" d="M 1959 3097 
Q 1497 3097 1228 2736 
Q 959 2375 959 1747 
Q 959 1119 1226 758 
Q 1494 397 1959 397 
Q 2419 397 2687 759 
Q 2956 1122 2956 1747 
Q 2956 2369 2687 2733 
Q 2419 3097 1959 3097 
z
M 1959 3584 
Q 2709 3584 3137 3096 
Q 3566 2609 3566 1747 
Q 3566 888 3137 398 
Q 2709 -91 1959 -91 
Q 1206 -91 779 398 
Q 353 888 353 1747 
Q 353 2609 779 3096 
Q 1206 3584 1959 3584 
z
" transform="scale(0.015625)"/>
        <path id="DejaVuSans-76" d="M 191 3500 
L 800 3500 
L 1894 563 
L 2988 3500 
L 3597 3500 
L 2284 0 
L 1503 0 
L 191 3500 
z
" transform="scale(0.015625)"/>
       </defs>
       <use xlink:href="#DejaVuSans-4e"/>
       <use xlink:href="#DejaVuSans-6f" x="74.804688"/>
       <use xlink:href="#DejaVuSans-76" x="135.986328"/>
      </g>
     </g>
    </g>
    <g id="text_13">
     <!-- Date -->
     <g transform="translate(224.209219 313.79744) scale(0.1 -0.1)">
      <use xlink:href="#DejaVuSans-44"/>
      <use xlink:href="#DejaVuSans-61" x="77.001953"/>
      <use xlink:href="#DejaVuSans-74" x="138.28125"/>
      <use xlink:href="#DejaVuSans-65" x="177.490234"/>
     </g>
    </g>
   </g>
   <g id="matplotlib.axis_2">
    <g id="ytick_1">
     <g id="line2d_13">
      <defs>
       <path id="m8db87b5439" d="M 0 0 
L -3.5 0 
" style="stroke: #000000; stroke-width: 0.8"/>
      </defs>
      <g>
       <use xlink:href="#m8db87b5439" x="57.6" y="261.32239" style="stroke: #000000; stroke-width: 0.8"/>
      </g>
     </g>
     <g id="text_14">
      <!-- 1.0 -->
      <g transform="translate(34.696875 265.121609) scale(0.1 -0.1)">
       <defs>
        <path id="DejaVuSans-31" d="M 794 531 
L 1825 531 
L 1825 4091 
L 703 3866 
L 703 4441 
L 1819 4666 
L 2450 4666 
L 2450 531 
L 3481 531 
L 3481 0 
L 794 0 
L 794 531 
z
" transform="scale(0.015625)"/>
        <path id="DejaVuSans-2e" d="M 684 794 
L 1344 794 
L 1344 0 
L 684 0 
L 684 794 
z
" transform="scale(0.015625)"/>
        <path id="DejaVuSans-30" d="M 2034 4250 
Q 1547 4250 1301 3770 
Q 1056 3291 1056 2328 
Q 1056 1369 1301 889 
Q 1547 409 2034 409 
Q 2525 409 2770 889 
Q 3016 1369 3016 2328 
Q 3016 3291 2770 3770 
Q 2525 4250 2034 4250 
z
M 2034 4750 
Q 2819 4750 3233 4129 
Q 3647 3509 3647 2328 
Q 3647 1150 3233 529 
Q 2819 -91 2034 -91 
Q 1250 -91 836 529 
Q 422 1150 422 2328 
Q 422 3509 836 4129 
Q 1250 4750 2034 4750 
z
" transform="scale(0.015625)"/>
       </defs>
       <use xlink:href="#DejaVuSans-31"/>
       <use xlink:href="#DejaVuSans-2e" x="63.623047"/>
       <use xlink:href="#DejaVuSans-30" x="95.410156"/>
      </g>
     </g>
    </g>
    <g id="ytick_2">
     <g id="line2d_14">
      <g>
       <use xlink:href="#m8db87b5439" x="57.6" y="214.441087" style="stroke: #000000; stroke-width: 0.8"/>
      </g>
     </g>
     <g id="text_15">
      <!-- 1.5 -->
      <g transform="translate(34.696875 218.240306) scale(0.1 -0.1)">
       <defs>
        <path id="DejaVuSans-35" d="M 691 4666 
L 3169 4666 
L 3169 4134 
L 1269 4134 
L 1269 2991 
Q 1406 3038 1543 3061 
Q 1681 3084 1819 3084 
Q 2600 3084 3056 2656 
Q 3513 2228 3513 1497 
Q 3513 744 3044 326 
Q 2575 -91 1722 -91 
Q 1428 -91 1123 -41 
Q 819 9 494 109 
L 494 744 
Q 775 591 1075 516 
Q 1375 441 1709 441 
Q 2250 441 2565 725 
Q 2881 1009 2881 1497 
Q 2881 1984 2565 2268 
Q 2250 2553 1709 2553 
Q 1456 2553 1204 2497 
Q 953 2441 691 2322 
L 691 4666 
z
" transform="scale(0.015625)"/>
       </defs>
       <use xlink:href="#DejaVuSans-31"/>
       <use xlink:href="#DejaVuSans-2e" x="63.623047"/>
       <use xlink:href="#DejaVuSans-35" x="95.410156"/>
      </g>
     </g>
    </g>
    <g id="ytick_3">
     <g id="line2d_15">
      <g>
       <use xlink:href="#m8db87b5439" x="57.6" y="167.559784" style="stroke: #000000; stroke-width: 0.8"/>
      </g>
     </g>
     <g id="text_16">
      <!-- 2.0 -->
      <g transform="translate(34.696875 171.359003) scale(0.1 -0.1)">
       <defs>
        <path id="DejaVuSans-32" d="M 1228 531 
L 3431 531 
L 3431 0 
L 469 0 
L 469 531 
Q 828 903 1448 1529 
Q 2069 2156 2228 2338 
Q 2531 2678 2651 2914 
Q 2772 3150 2772 3378 
Q 2772 3750 2511 3984 
Q 2250 4219 1831 4219 
Q 1534 4219 1204 4116 
Q 875 4013 500 3803 
L 500 4441 
Q 881 4594 1212 4672 
Q 1544 4750 1819 4750 
Q 2544 4750 2975 4387 
Q 3406 4025 3406 3419 
Q 3406 3131 3298 2873 
Q 3191 2616 2906 2266 
Q 2828 2175 2409 1742 
Q 1991 1309 1228 531 
z
" transform="scale(0.015625)"/>
       </defs>
       <use xlink:href="#DejaVuSans-32"/>
       <use xlink:href="#DejaVuSans-2e" x="63.623047"/>
       <use xlink:href="#DejaVuSans-30" x="95.410156"/>
      </g>
     </g>
    </g>
    <g id="ytick_4">
     <g id="line2d_16">
      <g>
       <use xlink:href="#m8db87b5439" x="57.6" y="120.678481" style="stroke: #000000; stroke-width: 0.8"/>
      </g>
     </g>
     <g id="text_17">
      <!-- 2.5 -->
      <g transform="translate(34.696875 124.4777) scale(0.1 -0.1)">
       <use xlink:href="#DejaVuSans-32"/>
       <use xlink:href="#DejaVuSans-2e" x="63.623047"/>
       <use xlink:href="#DejaVuSans-35" x="95.410156"/>
      </g>
     </g>
    </g>
    <g id="ytick_5">
     <g id="line2d_17">
      <g>
       <use xlink:href="#m8db87b5439" x="57.6" y="73.797178" style="stroke: #000000; stroke-width: 0.8"/>
      </g>
     </g>
     <g id="text_18">
      <!-- 3.0 -->
      <g transform="translate(34.696875 77.596397) scale(0.1 -0.1)">
       <defs>
        <path id="DejaVuSans-33" d="M 2597 2516 
Q 3050 2419 3304 2112 
Q 3559 1806 3559 1356 
Q 3559 666 3084 287 
Q 2609 -91 1734 -91 
Q 1441 -91 1130 -33 
Q 819 25 488 141 
L 488 750 
Q 750 597 1062 519 
Q 1375 441 1716 441 
Q 2309 441 2620 675 
Q 2931 909 2931 1356 
Q 2931 1769 2642 2001 
Q 2353 2234 1838 2234 
L 1294 2234 
L 1294 2753 
L 1863 2753 
Q 2328 2753 2575 2939 
Q 2822 3125 2822 3475 
Q 2822 3834 2567 4026 
Q 2313 4219 1838 4219 
Q 1578 4219 1281 4162 
Q 984 4106 628 3988 
L 628 4550 
Q 988 4650 1302 4700 
Q 1616 4750 1894 4750 
Q 2613 4750 3031 4423 
Q 3450 4097 3450 3541 
Q 3450 3153 3228 2886 
Q 3006 2619 2597 2516 
z
" transform="scale(0.015625)"/>
       </defs>
       <use xlink:href="#DejaVuSans-33"/>
       <use xlink:href="#DejaVuSans-2e" x="63.623047"/>
       <use xlink:href="#DejaVuSans-30" x="95.410156"/>
      </g>
     </g>
    </g>
   </g>
   <g id="line2d_18">
    <path d="M 73.832727 260.556123 
L 74.840971 259.630756 
L 75.849215 255.810081 
L 76.857459 256.699172 
L 77.865703 260.272983 
L 78.873947 250.321023 
L 79.882191 257.030515 
L 80.890435 256.446735 
L 81.898679 259.597594 
L 82.906923 250.605135 
L 83.915167 261.065623 
L 84.923411 242.708808 
L 85.931654 251.169526 
L 86.939898 256.817266 
L 87.948142 252.946066 
L 88.956386 254.253793 
L 89.96463 249.934419 
L 90.972874 260.967756 
L 91.981118 254.797406 
L 92.989362 253.332042 
L 93.997606 259.293022 
L 95.00585 255.068267 
L 96.014094 264.594212 
L 97.022338 256.782622 
L 98.030582 254.387083 
L 99.038826 252.379947 
L 100.047069 251.294053 
L 101.055313 249.691904 
L 102.063557 256.421373 
L 103.071801 250.726024 
L 104.080045 255.161012 
L 105.088289 262.014385 
L 106.096533 259.794486 
L 107.104777 262.95139 
L 108.113021 263.138476 
L 109.121265 253.128189 
L 110.129509 253.449937 
L 111.137753 254.941819 
L 113.154241 252.684234 
L 114.162484 255.533913 
L 115.170728 261.487893 
L 116.178972 257.661112 
L 117.187216 257.288209 
L 118.19546 253.711032 
L 119.203704 252.304708 
L 120.211948 255.512457 
L 121.220192 260.9215 
L 122.228436 254.294134 
L 123.23668 259.183331 
L 124.244924 249.470312 
L 125.253168 255.388124 
L 126.261412 258.921221 
L 127.269656 260.101481 
L 128.277899 257.649887 
L 129.286143 257.855501 
L 130.294387 259.951712 
L 131.302631 260.881771 
L 132.310875 253.947852 
L 133.319119 250.606664 
L 135.335607 261.389254 
L 136.343851 255.629924 
L 137.352095 254.529565 
L 138.360339 255.751329 
L 139.368583 253.918971 
L 140.376827 257.37869 
L 141.385071 254.348273 
L 142.393315 260.260012 
L 143.401558 250.977249 
L 144.409802 253.858811 
L 145.418046 262.007718 
L 146.42629 256.538684 
L 147.434534 256.449308 
L 148.442778 255.924789 
L 149.451022 257.150664 
L 150.459266 251.536776 
L 151.46751 248.567683 
L 152.475754 249.542118 
L 153.483998 256.78428 
L 154.492242 255.943279 
L 155.500486 254.190675 
L 156.50873 265.797818 
L 157.516973 254.586728 
L 158.525217 256.493288 
L 159.533461 261.873901 
L 160.541705 255.539495 
L 161.549949 260.566253 
L 162.558193 262.257393 
L 163.566437 255.099344 
L 164.574681 255.40292 
L 165.582925 256.624437 
L 166.591169 259.822826 
L 167.599413 257.599021 
L 168.607657 256.583791 
L 169.615901 257.355936 
L 170.624145 257.769929 
L 171.632388 252.665841 
L 172.640632 248.428479 
L 173.648876 257.940685 
L 174.65712 253.544782 
L 175.665364 255.103832 
L 176.673608 252.523471 
L 177.681852 255.200294 
L 178.690096 255.529049 
L 179.69834 255.713092 
L 180.706584 259.086152 
L 181.714828 253.903756 
L 182.723072 257.391306 
L 183.731316 256.508387 
L 184.73956 257.194207 
L 185.747804 256.11898 
L 186.756047 260.72419 
L 187.764291 250.014438 
L 188.772535 259.659199 
L 189.780779 256.299162 
L 190.789023 253.664431 
L 191.797267 252.662275 
L 192.805511 257.936962 
L 193.813755 259.145427 
L 194.821999 255.71392 
L 195.830243 258.253468 
L 196.838487 261.703043 
L 197.846731 256.457977 
L 198.854975 257.785238 
L 199.863219 254.694959 
L 200.871462 255.124798 
L 201.879706 253.937683 
L 202.88795 265.177688 
L 203.896194 251.808522 
L 204.904438 256.910054 
L 205.912682 254.025293 
L 206.920926 255.027169 
L 207.92917 252.370015 
L 208.937414 255.450824 
L 209.945658 254.072836 
L 210.953902 256.426743 
L 211.962146 250.930368 
L 212.97039 259.971204 
L 213.978634 252.358304 
L 214.986877 246.400309 
L 215.995121 242.423889 
L 217.003365 250.677841 
L 218.011609 247.816585 
L 219.019853 250.222936 
L 220.028097 231.666983 
L 221.036341 235.459134 
L 222.044585 224.089879 
L 223.052829 232.548102 
L 224.061073 227.841608 
L 225.069317 229.273579 
L 226.077561 224.18002 
L 227.085805 217.302091 
L 229.102292 221.031547 
L 230.110536 208.30201 
L 231.11878 213.386538 
L 232.127024 207.211512 
L 233.135268 190.982288 
L 234.143512 193.010471 
L 235.151756 198.497367 
L 236.16 200.448352 
L 237.168244 190.768708 
L 238.176488 187.924089 
L 239.184732 196.305213 
L 240.192976 200.603784 
L 241.20122 193.381917 
L 242.209464 195.311472 
L 243.217708 193.550147 
L 244.225951 197.631858 
L 245.234195 188.138467 
L 246.242439 197.423701 
L 247.250683 195.79981 
L 248.258927 176.580734 
L 249.267171 199.264414 
L 250.275415 180.148433 
L 251.283659 203.702938 
L 252.291903 184.701699 
L 253.300147 192.568138 
L 254.308391 188.668391 
L 255.316635 191.465242 
L 256.324879 189.054671 
L 257.333123 205.941922 
L 258.341366 196.054702 
L 259.34961 196.108016 
L 260.357854 196.680919 
L 261.366098 167.281729 
L 262.374342 199.844023 
L 263.382586 197.845635 
L 264.39083 201.433241 
L 265.399074 200.28437 
L 266.407318 199.454536 
L 267.415562 213.836252 
L 269.43205 203.836954 
L 270.440294 201.682675 
L 271.448538 197.502387 
L 272.456781 219.979818 
L 273.465025 219.098744 
L 274.473269 220.180698 
L 275.481513 215.026682 
L 276.489757 224.947953 
L 277.498001 230.363081 
L 278.506245 228.801081 
L 279.514489 228.128631 
L 280.522733 236.417814 
L 281.530977 232.075115 
L 282.539221 239.040867 
L 283.547465 240.403761 
L 284.555709 240.526449 
L 285.563953 242.034621 
L 286.572196 246.072999 
L 287.58044 246.69607 
L 288.588684 245.826604 
L 289.596928 250.470789 
L 290.605172 248.036014 
L 291.613416 257.920438 
L 292.62166 258.225308 
L 293.629904 257.18848 
L 294.638148 252.122688 
L 295.646392 252.267726 
L 296.654636 253.97418 
L 297.66288 253.997341 
L 298.671124 249.144675 
L 299.679368 255.704185 
L 301.695855 253.383334 
L 302.704099 248.997519 
L 303.712343 253.86682 
L 304.720587 248.73769 
L 305.728831 254.978514 
L 306.737075 264.408743 
L 307.745319 255.189235 
L 308.753563 251.450561 
L 309.761807 254.983902 
L 310.770051 254.982613 
L 311.778295 251.700904 
L 312.786539 259.822701 
L 313.794783 251.268154 
L 314.803027 249.611309 
L 315.81127 255.087177 
L 316.819514 257.969805 
L 317.827758 246.078564 
L 318.836002 254.368874 
L 319.844246 257.325381 
L 320.85249 253.498914 
L 321.860734 258.553599 
L 322.868978 257.970377 
L 323.877222 255.107354 
L 324.885466 255.856812 
L 325.89371 263.993357 
L 326.901954 256.120281 
L 327.910198 258.399721 
L 328.918442 256.48499 
L 329.926685 259.85052 
L 331.943173 254.224838 
L 332.951417 253.910017 
L 333.959661 256.462565 
L 334.967905 253.990426 
L 335.976149 253.386227 
L 336.984393 249.539556 
L 337.992637 257.749232 
L 339.000881 256.73171 
L 340.009125 260.115531 
L 341.017369 251.641959 
L 342.025613 258.126671 
L 343.033857 255.430151 
L 344.042101 253.689233 
L 345.050344 255.64296 
L 346.058588 255.893042 
L 347.066832 253.270793 
L 348.075076 246.063376 
L 349.08332 258.241619 
L 350.091564 257.846279 
L 351.099808 263.620631 
L 352.108052 254.760565 
L 353.116296 255.120348 
L 354.12454 254.483835 
L 355.132784 257.41543 
L 356.141028 254.224598 
L 357.149272 255.267524 
L 358.157516 259.223812 
L 359.165759 251.557803 
L 360.174003 259.947205 
L 361.182247 256.978056 
L 362.190491 256.492517 
L 363.198735 254.073947 
L 364.206979 255.499541 
L 365.215223 258.987245 
L 366.223467 251.64864 
L 367.231711 256.33575 
L 368.239955 254.298047 
L 369.248199 258.581965 
L 370.256443 255.667473 
L 371.264687 254.92239 
L 372.272931 260.218915 
L 373.281174 254.068125 
L 374.289418 257.406456 
L 375.297662 254.785447 
L 376.305906 252.953388 
L 377.31415 256.707894 
L 378.322394 255.367743 
L 379.330638 251.850988 
L 380.338882 262.938416 
L 381.347126 257.702844 
L 382.35537 254.312722 
L 383.363614 256.594411 
L 384.371858 255.824197 
L 385.380102 260.87032 
L 386.388346 253.718471 
L 387.396589 255.482144 
L 388.404833 255.215373 
L 389.413077 251.576109 
L 390.421321 260.483874 
L 391.429565 259.463931 
L 392.437809 257.271639 
L 393.446053 257.726481 
L 394.454297 252.033864 
L 395.462541 252.292938 
L 396.470785 259.099733 
L 397.479029 254.796002 
L 398.487273 253.778762 
L 398.487273 253.778762 
" clip-path="url(#p033a47e72c)" style="fill: none; stroke: #1f77b4; stroke-width: 1.5; stroke-linecap: square"/>
   </g>
   <g id="line2d_19">
    <path d="M 73.832727 169.582955 
L 74.840971 157.75329 
L 75.849215 147.307061 
L 76.857459 153.127555 
L 77.865703 161.541292 
L 78.873947 151.063928 
L 79.882191 153.794309 
L 80.890435 160.552263 
L 81.898679 160.213593 
L 82.906923 146.970397 
L 83.915167 165.50662 
L 84.923411 127.160887 
L 85.931654 152.926794 
L 86.939898 163.787816 
L 87.948142 154.003966 
L 88.956386 157.357309 
L 89.96463 150.942874 
L 90.972874 160.473902 
L 91.981118 155.709977 
L 92.989362 156.719679 
L 93.997606 160.614615 
L 95.00585 158.230011 
L 96.014094 175.213774 
L 97.022338 163.463387 
L 98.030582 158.437724 
L 99.038826 156.081128 
L 100.047069 141.304834 
L 101.055313 147.008119 
L 102.063557 160.924158 
L 103.071801 150.883151 
L 104.080045 161.113075 
L 105.088289 163.591381 
L 106.096533 161.756548 
L 107.104777 168.545126 
L 108.113021 165.563693 
L 109.121265 157.153219 
L 110.129509 157.185621 
L 111.137753 155.785331 
L 112.145997 151.003381 
L 113.154241 154.861738 
L 114.162484 154.604173 
L 115.170728 162.680792 
L 116.178972 163.910906 
L 117.187216 152.429963 
L 118.19546 148.427374 
L 119.203704 153.131746 
L 120.211948 153.767305 
L 121.220192 168.252298 
L 122.228436 156.115231 
L 123.23668 167.07349 
L 124.244924 147.148365 
L 125.253168 158.460962 
L 126.261412 158.270589 
L 127.269656 167.874986 
L 128.277899 159.640885 
L 129.286143 160.628666 
L 130.294387 159.217965 
L 131.302631 165.914676 
L 132.310875 156.367145 
L 133.319119 144.011975 
L 134.327363 159.984703 
L 135.335607 172.851223 
L 136.343851 155.166827 
L 137.352095 156.767708 
L 138.360339 156.826807 
L 139.368583 158.424053 
L 140.376827 158.887499 
L 141.385071 158.987519 
L 142.393315 162.396484 
L 143.401558 149.746191 
L 144.409802 149.511995 
L 145.418046 165.11788 
L 146.42629 150.087045 
L 147.434534 151.809259 
L 148.442778 154.536158 
L 149.451022 153.79657 
L 150.459266 150.819728 
L 151.46751 139.003086 
L 152.475754 147.282468 
L 153.483998 152.400488 
L 154.492242 160.150049 
L 155.500486 157.049736 
L 156.50873 170.788517 
L 157.516973 156.113885 
L 158.525217 160.022713 
L 159.533461 162.162028 
L 160.541705 156.995213 
L 161.549949 166.424572 
L 162.558193 166.168426 
L 163.566437 160.540472 
L 164.574681 154.142694 
L 165.582925 159.701585 
L 166.591169 159.644179 
L 167.599413 152.289375 
L 168.607657 153.603029 
L 169.615901 158.049295 
L 170.624145 151.188593 
L 171.632388 155.688993 
L 172.640632 150.275175 
L 173.648876 169.452896 
L 174.65712 154.800496 
L 175.665364 154.311498 
L 176.673608 150.979307 
L 177.681852 153.903992 
L 178.690096 157.952723 
L 179.69834 159.457797 
L 180.706584 169.992924 
L 181.714828 147.964159 
L 182.723072 161.264956 
L 183.731316 162.391281 
L 184.73956 154.971059 
L 185.747804 154.348799 
L 186.756047 164.828984 
L 187.764291 140.471797 
L 188.772535 157.948679 
L 189.780779 156.518429 
L 190.789023 159.172787 
L 191.797267 153.645876 
L 192.805511 156.210636 
L 193.813755 169.536225 
L 194.821999 159.12534 
L 195.830243 159.701756 
L 196.838487 163.923092 
L 197.846731 164.418624 
L 198.854975 158.348029 
L 199.863219 155.86488 
L 200.871462 156.364413 
L 201.879706 148.877134 
L 202.88795 180.201189 
L 203.896194 151.334488 
L 204.904438 164.827483 
L 205.912682 155.967813 
L 206.920926 158.353234 
L 207.92917 153.246336 
L 208.937414 160.744256 
L 209.945658 155.664719 
L 210.953902 158.366825 
L 211.962146 153.249266 
L 212.97039 160.63642 
L 213.978634 162.01256 
L 215.995121 150.142427 
L 217.003365 164.754387 
L 218.011609 159.640834 
L 219.019853 166.594437 
L 220.028097 144.850481 
L 221.036341 160.766666 
L 222.044585 148.544217 
L 223.052829 165.81756 
L 224.061073 156.882794 
L 225.069317 163.562649 
L 226.077561 157.834467 
L 227.085805 157.538525 
L 228.094049 156.340835 
L 229.102292 160.889706 
L 230.110536 150.282145 
L 231.11878 159.335197 
L 232.127024 151.966226 
L 233.135268 131.936043 
L 234.143512 148.977516 
L 235.151756 157.70248 
L 236.16 154.317912 
L 237.168244 155.519326 
L 238.176488 148.688468 
L 240.192976 161.323186 
L 241.20122 142.669041 
L 242.209464 144.9492 
L 243.217708 148.921755 
L 244.225951 141.877127 
L 245.234195 129.09797 
L 246.242439 137.858459 
L 247.250683 135.351004 
L 248.258927 103.386682 
L 249.267171 138.613665 
L 250.275415 109.333206 
L 251.283659 138.763785 
L 252.291903 103.981431 
L 253.300147 115.934571 
L 254.308391 103.624906 
L 255.316635 104.473578 
L 256.324879 100.979948 
L 257.333123 117.985476 
L 258.341366 104.003773 
L 259.34961 107.329444 
L 260.357854 105.549406 
L 261.366098 52.154182 
L 262.374342 100.854025 
L 263.382586 98.742269 
L 264.39083 97.827848 
L 265.399074 92.914081 
L 266.407318 84.647541 
L 267.415562 112.332288 
L 268.423806 98.295871 
L 269.43205 86.541129 
L 270.440294 71.895136 
L 271.448538 71.618006 
L 272.456781 100.584649 
L 273.465025 93.557387 
L 274.473269 91.720067 
L 275.481513 84.241602 
L 276.489757 94.617931 
L 277.498001 106.57585 
L 278.506245 104.067111 
L 279.514489 84.579159 
L 280.522733 99.090199 
L 281.530977 83.065251 
L 282.539221 94.287411 
L 283.547465 92.354902 
L 284.555709 90.848664 
L 285.563953 87.021475 
L 286.572196 94.823276 
L 287.58044 86.158323 
L 288.588684 82.145971 
L 289.596928 91.057311 
L 290.605172 77.565576 
L 291.613416 103.187169 
L 292.62166 96.203076 
L 293.629904 107.846929 
L 294.638148 100.567773 
L 295.646392 87.421673 
L 296.654636 109.80935 
L 297.66288 107.783025 
L 298.671124 100.375536 
L 299.679368 102.016576 
L 300.687612 115.039398 
L 301.695855 109.720562 
L 302.704099 107.617796 
L 303.712343 118.105779 
L 304.720587 110.890178 
L 305.728831 123.624371 
L 306.737075 150.474674 
L 307.745319 128.00354 
L 308.753563 120.979658 
L 309.761807 130.499095 
L 310.770051 131.890926 
L 311.778295 131.856666 
L 312.786539 145.169991 
L 313.794783 137.776999 
L 314.803027 145.561492 
L 315.81127 151.756097 
L 316.819514 150.884524 
L 317.827758 133.341368 
L 318.836002 152.210438 
L 319.844246 158.20772 
L 320.85249 154.510943 
L 321.860734 164.289891 
L 322.868978 156.239512 
L 323.877222 153.1061 
L 324.885466 159.788231 
L 325.89371 170.864916 
L 326.901954 153.124345 
L 327.910198 165.935367 
L 328.918442 157.884608 
L 329.926685 162.273327 
L 330.934929 155.353308 
L 331.943173 152.143845 
L 332.951417 159.275711 
L 333.959661 162.299336 
L 334.967905 156.108516 
L 335.976149 156.291442 
L 336.984393 149.564774 
L 337.992637 151.364692 
L 339.000881 161.501561 
L 340.009125 159.128516 
L 341.017369 154.883973 
L 342.025613 158.784494 
L 343.033857 147.608088 
L 344.042101 155.660743 
L 345.050344 156.2049 
L 346.058588 153.709567 
L 347.066832 159.75751 
L 348.075076 141.265446 
L 349.08332 151.793644 
L 350.091564 157.459621 
L 351.099808 168.20026 
L 352.108052 155.613307 
L 353.116296 152.063302 
L 355.132784 159.557229 
L 357.149272 155.055486 
L 358.157516 160.642661 
L 359.165759 153.713619 
L 360.174003 161.539088 
L 361.182247 156.917728 
L 362.190491 159.683542 
L 363.198735 158.979437 
L 364.206979 153.261305 
L 365.215223 162.89385 
L 366.223467 149.627341 
L 367.231711 160.153686 
L 368.239955 154.918691 
L 369.248199 153.512441 
L 370.256443 156.253988 
L 371.264687 155.356047 
L 372.272931 158.905395 
L 373.281174 152.038259 
L 374.289418 158.345271 
L 375.297662 160.037243 
L 376.305906 144.572089 
L 377.31415 161.449418 
L 378.322394 150.551968 
L 379.330638 149.048564 
L 380.338882 165.482299 
L 381.347126 154.944916 
L 382.35537 152.123049 
L 383.363614 157.722412 
L 384.371858 155.763291 
L 385.380102 166.655645 
L 386.388346 157.864606 
L 387.396589 160.524524 
L 388.404833 153.538962 
L 389.413077 156.891571 
L 390.421321 159.640949 
L 391.429565 164.415238 
L 392.437809 152.431946 
L 393.446053 157.563634 
L 394.454297 155.371985 
L 395.462541 155.95299 
L 396.470785 154.424034 
L 397.479029 159.432097 
L 398.487273 150.414013 
L 398.487273 150.414013 
" clip-path="url(#p033a47e72c)" style="fill: none; stroke: #ff7f0e; stroke-width: 1.5; stroke-linecap: square"/>
   </g>
   <g id="patch_3">
    <path d="M 57.6 276.48 
L 57.6 41.472 
" style="fill: none; stroke: #000000; stroke-width: 0.8; stroke-linejoin: miter; stroke-linecap: square"/>
   </g>
   <g id="patch_4">
    <path d="M 414.72 276.48 
L 414.72 41.472 
" style="fill: none; stroke: #000000; stroke-width: 0.8; stroke-linejoin: miter; stroke-linecap: square"/>
   </g>
   <g id="patch_5">
    <path d="M 57.6 276.48 
L 414.72 276.48 
" style="fill: none; stroke: #000000; stroke-width: 0.8; stroke-linejoin: miter; stroke-linecap: square"/>
   </g>
   <g id="patch_6">
    <path d="M 57.6 41.472 
L 414.72 41.472 
" style="fill: none; stroke: #000000; stroke-width: 0.8; stroke-linejoin: miter; stroke-linecap: square"/>
   </g>
   <g id="legend_1">
    <g id="patch_7">
     <path d="M 64.6 78.82825 
L 140.36875 78.82825 
Q 142.36875 78.82825 142.36875 76.82825 
L 142.36875 48.472 
Q 142.36875 46.472 140.36875 46.472 
L 64.6 46.472 
Q 62.6 46.472 62.6 48.472 
L 62.6 76.82825 
Q 62.6 78.82825 64.6 78.82825 
z
" style="fill: #ffffff; opacity: 0.8; stroke: #cccccc; stroke-linejoin: miter"/>
    </g>
    <g id="line2d_20">
     <path d="M 66.6 54.570437 
L 76.6 54.570437 
L 86.6 54.570437 
" style="fill: none; stroke: #1f77b4; stroke-width: 1.5; stroke-linecap: square"/>
    </g>
    <g id="text_19">
     <!-- unitCost -->
     <g transform="translate(94.6 58.070437) scale(0.1 -0.1)">
      <defs>
       <path id="DejaVuSans-69" d="M 603 3500 
L 1178 3500 
L 1178 0 
L 603 0 
L 603 3500 
z
M 603 4863 
L 1178 4863 
L 1178 4134 
L 603 4134 
L 603 4863 
z
" transform="scale(0.015625)"/>
       <path id="DejaVuSans-43" d="M 4122 4306 
L 4122 3641 
Q 3803 3938 3442 4084 
Q 3081 4231 2675 4231 
Q 1875 4231 1450 3742 
Q 1025 3253 1025 2328 
Q 1025 1406 1450 917 
Q 1875 428 2675 428 
Q 3081 428 3442 575 
Q 3803 722 4122 1019 
L 4122 359 
Q 3791 134 3420 21 
Q 3050 -91 2638 -91 
Q 1578 -91 968 557 
Q 359 1206 359 2328 
Q 359 3453 968 4101 
Q 1578 4750 2638 4750 
Q 3056 4750 3426 4639 
Q 3797 4528 4122 4306 
z
" transform="scale(0.015625)"/>
       <path id="DejaVuSans-73" d="M 2834 3397 
L 2834 2853 
Q 2591 2978 2328 3040 
Q 2066 3103 1784 3103 
Q 1356 3103 1142 2972 
Q 928 2841 928 2578 
Q 928 2378 1081 2264 
Q 1234 2150 1697 2047 
L 1894 2003 
Q 2506 1872 2764 1633 
Q 3022 1394 3022 966 
Q 3022 478 2636 193 
Q 2250 -91 1575 -91 
Q 1294 -91 989 -36 
Q 684 19 347 128 
L 347 722 
Q 666 556 975 473 
Q 1284 391 1588 391 
Q 1994 391 2212 530 
Q 2431 669 2431 922 
Q 2431 1156 2273 1281 
Q 2116 1406 1581 1522 
L 1381 1569 
Q 847 1681 609 1914 
Q 372 2147 372 2553 
Q 372 3047 722 3315 
Q 1072 3584 1716 3584 
Q 2034 3584 2315 3537 
Q 2597 3491 2834 3397 
z
" transform="scale(0.015625)"/>
      </defs>
      <use xlink:href="#DejaVuSans-75"/>
      <use xlink:href="#DejaVuSans-6e" x="63.378906"/>
      <use xlink:href="#DejaVuSans-69" x="126.757812"/>
      <use xlink:href="#DejaVuSans-74" x="154.541016"/>
      <use xlink:href="#DejaVuSans-43" x="193.75"/>
      <use xlink:href="#DejaVuSans-6f" x="263.574219"/>
      <use xlink:href="#DejaVuSans-73" x="324.755859"/>
      <use xlink:href="#DejaVuSans-74" x="376.855469"/>
     </g>
    </g>
    <g id="line2d_21">
     <path d="M 66.6 69.248562 
L 76.6 69.248562 
L 86.6 69.248562 
" style="fill: none; stroke: #ff7f0e; stroke-width: 1.5; stroke-linecap: square"/>
    </g>
    <g id="text_20">
     <!-- unitPrice -->
     <g transform="translate(94.6 72.748562) scale(0.1 -0.1)">
      <defs>
       <path id="DejaVuSans-50" d="M 1259 4147 
L 1259 2394 
L 2053 2394 
Q 2494 2394 2734 2622 
Q 2975 2850 2975 3272 
Q 2975 3691 2734 3919 
Q 2494 4147 2053 4147 
L 1259 4147 
z
M 628 4666 
L 2053 4666 
Q 2838 4666 3239 4311 
Q 3641 3956 3641 3272 
Q 3641 2581 3239 2228 
Q 2838 1875 2053 1875 
L 1259 1875 
L 1259 0 
L 628 0 
L 628 4666 
z
" transform="scale(0.015625)"/>
      </defs>
      <use xlink:href="#DejaVuSans-75"/>
      <use xlink:href="#DejaVuSans-6e" x="63.378906"/>
      <use xlink:href="#DejaVuSans-69" x="126.757812"/>
      <use xlink:href="#DejaVuSans-74" x="154.541016"/>
      <use xlink:href="#DejaVuSans-50" x="193.75"/>
      <use xlink:href="#DejaVuSans-72" x="252.302734"/>
      <use xlink:href="#DejaVuSans-69" x="293.416016"/>
      <use xlink:href="#DejaVuSans-63" x="321.199219"/>
      <use xlink:href="#DejaVuSans-65" x="376.179688"/>
     </g>
    </g>
   </g>
  </g>
 </g>
 <defs>
  <clipPath id="p033a47e72c">
   <rect x="57.6" y="41.472" width="357.12" height="235.008"/>
  </clipPath>
 </defs>
</svg>
