<?xml version="1.0" encoding="utf-8" standalone="no"?>
<!DOCTYPE svg PUBLIC "-//W3C//DTD SVG 1.1//EN"
  "http://www.w3.org/Graphics/SVG/1.1/DTD/svg11.dtd">
<svg xmlns:xlink="http://www.w3.org/1999/xlink" width="540pt" height="216pt" viewBox="0 0 540 216" xmlns="http://www.w3.org/2000/svg" version="1.1">
 <metadata>
  <rdf:RDF xmlns:dc="http://purl.org/dc/elements/1.1/" xmlns:cc="http://creativecommons.org/ns#" xmlns:rdf="http://www.w3.org/1999/02/22-rdf-syntax-ns#">
   <cc:Work>
    <dc:type rdf:resource="http://purl.org/dc/dcmitype/StillImage"/>
    <dc:date>2023-11-08T10:21:48.188684</dc:date>
    <dc:format>image/svg+xml</dc:format>
    <dc:creator>
     <cc:Agent>
      <dc:title>Matplotlib v3.8.1, https://matplotlib.org/</dc:title>
     </cc:Agent>
    </dc:creator>
   </cc:Work>
  </rdf:RDF>
 </metadata>
 <defs>
  <style type="text/css">*{stroke-linejoin: round; stroke-linecap: butt}</style>
 </defs>
 <g id="figure_1">
  <g id="patch_1">
   <path d="M 0 216 
L 540 216 
L 540 0 
L 0 0 
z
" style="fill: #ffffff"/>
  </g>
  <g id="axes_1">
   <g id="patch_2">
    <path d="M 44.57 135.52 
L 196.58 135.52 
L 196.58 27.6 
L 44.57 27.6 
z
" style="fill: #ffffff"/>
   </g>
   <g id="matplotlib.axis_1">
    <g id="xtick_1">
     <g id="line2d_1">
      <path d="M 59.771 135.52 
L 59.771 27.6 
" clip-path="url(#p3be28899d2)" style="fill: none; stroke: #b0b0b0; stroke-width: 0.8; stroke-linecap: square"/>
     </g>
     <g id="line2d_2">
      <defs>
       <path id="m994bd834b8" d="M 0 0 
L 0 3.5 
" style="stroke: #000000; stroke-width: 0.8"/>
      </defs>
      <g>
       <use xlink:href="#m994bd834b8" x="59.771" y="135.52" style="stroke: #000000; stroke-width: 0.8"/>
      </g>
     </g>
     <g id="text_1">
      <!-- Very low -->
      <g transform="translate(62.459281 186.134062) rotate(-90) scale(0.1 -0.1)">
       <defs>
        <path id="DejaVuSerif-56" d="M 1119 4331 
L 2497 750 
L 3872 4331 
L 3347 4331 
L 3347 4666 
L 4716 4666 
L 4716 4331 
L 4263 4331 
L 2597 0 
L 2059 0 
L 403 4331 
L -63 4331 
L -63 4666 
L 1638 4666 
L 1638 4331 
L 1119 4331 
z
" transform="scale(0.015625)"/>
        <path id="DejaVuSerif-65" d="M 3469 1600 
L 991 1600 
L 991 1575 
Q 991 903 1244 561 
Q 1497 219 1991 219 
Q 2369 219 2611 417 
Q 2853 616 2950 1006 
L 3413 1006 
Q 3275 459 2904 184 
Q 2534 -91 1931 -91 
Q 1203 -91 761 389 
Q 319 869 319 1663 
Q 319 2450 753 2931 
Q 1188 3413 1894 3413 
Q 2647 3413 3050 2948 
Q 3453 2484 3469 1600 
z
M 2791 1931 
Q 2772 2513 2545 2808 
Q 2319 3103 1894 3103 
Q 1497 3103 1269 2806 
Q 1041 2509 991 1931 
L 2791 1931 
z
" transform="scale(0.015625)"/>
        <path id="DejaVuSerif-72" d="M 3059 3328 
L 3059 2497 
L 2728 2497 
Q 2713 2744 2591 2866 
Q 2469 2988 2234 2988 
Q 1809 2988 1582 2694 
Q 1356 2400 1356 1850 
L 1356 331 
L 2022 331 
L 2022 0 
L 263 0 
L 263 331 
L 781 331 
L 781 2994 
L 231 2994 
L 231 3322 
L 1356 3322 
L 1356 2731 
Q 1525 3078 1790 3245 
Q 2056 3413 2438 3413 
Q 2578 3413 2733 3391 
Q 2888 3369 3059 3328 
z
" transform="scale(0.015625)"/>
        <path id="DejaVuSerif-79" d="M 1381 -609 
L 1600 -56 
L 359 2988 
L -19 2988 
L -19 3322 
L 1509 3322 
L 1509 2988 
L 978 2988 
L 1913 703 
L 2847 2988 
L 2350 2988 
L 2350 3322 
L 3597 3322 
L 3597 2988 
L 3225 2988 
L 1703 -750 
Q 1547 -1138 1356 -1280 
Q 1166 -1422 819 -1422 
Q 672 -1422 517 -1397 
Q 363 -1372 206 -1325 
L 206 -691 
L 500 -691 
Q 519 -903 608 -995 
Q 697 -1088 884 -1088 
Q 1056 -1088 1161 -992 
Q 1266 -897 1381 -609 
z
" transform="scale(0.015625)"/>
        <path id="DejaVuSerif-20" transform="scale(0.015625)"/>
        <path id="DejaVuSerif-6c" d="M 1313 331 
L 1856 331 
L 1856 0 
L 184 0 
L 184 331 
L 738 331 
L 738 4531 
L 184 4531 
L 184 4863 
L 1313 4863 
L 1313 331 
z
" transform="scale(0.015625)"/>
        <path id="DejaVuSerif-6f" d="M 1925 219 
Q 2388 219 2623 584 
Q 2859 950 2859 1663 
Q 2859 2375 2623 2739 
Q 2388 3103 1925 3103 
Q 1463 3103 1227 2739 
Q 991 2375 991 1663 
Q 991 950 1228 584 
Q 1466 219 1925 219 
z
M 1925 -91 
Q 1200 -91 759 389 
Q 319 869 319 1663 
Q 319 2456 758 2934 
Q 1197 3413 1925 3413 
Q 2653 3413 3092 2934 
Q 3531 2456 3531 1663 
Q 3531 869 3092 389 
Q 2653 -91 1925 -91 
z
" transform="scale(0.015625)"/>
        <path id="DejaVuSerif-77" d="M 3072 3322 
L 3922 728 
L 4672 2988 
L 4191 2988 
L 4191 3322 
L 5394 3322 
L 5394 2988 
L 5025 2988 
L 4038 0 
L 3559 0 
L 2741 2484 
L 1919 0 
L 1459 0 
L 475 2988 
L 103 2988 
L 103 3322 
L 1606 3322 
L 1606 2988 
L 1069 2988 
L 1813 728 
L 2669 3322 
L 3072 3322 
z
" transform="scale(0.015625)"/>
       </defs>
       <use xlink:href="#DejaVuSerif-56"/>
       <use xlink:href="#DejaVuSerif-65" x="63.091797"/>
       <use xlink:href="#DejaVuSerif-72" x="122.271484"/>
       <use xlink:href="#DejaVuSerif-79" x="170.074219"/>
       <use xlink:href="#DejaVuSerif-20" x="226.568359"/>
       <use xlink:href="#DejaVuSerif-6c" x="258.355469"/>
       <use xlink:href="#DejaVuSerif-6f" x="290.337891"/>
       <use xlink:href="#DejaVuSerif-77" x="350.542969"/>
      </g>
     </g>
    </g>
    <g id="xtick_2">
     <g id="line2d_3">
      <path d="M 90.173 135.52 
L 90.173 27.6 
" clip-path="url(#p3be28899d2)" style="fill: none; stroke: #b0b0b0; stroke-width: 0.8; stroke-linecap: square"/>
     </g>
     <g id="line2d_4">
      <g>
       <use xlink:href="#m994bd834b8" x="90.173" y="135.52" style="stroke: #000000; stroke-width: 0.8"/>
      </g>
     </g>
     <g id="text_2">
      <!-- Low -->
      <g transform="translate(92.932375 163.740313) rotate(-90) scale(0.1 -0.1)">
       <defs>
        <path id="DejaVuSerif-4c" d="M 353 0 
L 353 331 
L 947 331 
L 947 4331 
L 353 4331 
L 353 4666 
L 2175 4666 
L 2175 4331 
L 1581 4331 
L 1581 384 
L 3713 384 
L 3713 1166 
L 4097 1166 
L 4097 0 
L 353 0 
z
" transform="scale(0.015625)"/>
       </defs>
       <use xlink:href="#DejaVuSerif-4c"/>
       <use xlink:href="#DejaVuSerif-6f" x="66.40625"/>
       <use xlink:href="#DejaVuSerif-77" x="126.611328"/>
      </g>
     </g>
    </g>
    <g id="xtick_3">
     <g id="line2d_5">
      <path d="M 120.575 135.52 
L 120.575 27.6 
" clip-path="url(#p3be28899d2)" style="fill: none; stroke: #b0b0b0; stroke-width: 0.8; stroke-linecap: square"/>
     </g>
     <g id="line2d_6">
      <g>
       <use xlink:href="#m994bd834b8" x="120.575" y="135.52" style="stroke: #000000; stroke-width: 0.8"/>
      </g>
     </g>
     <g id="text_3">
      <!-- Medium -->
      <g transform="translate(123.334375 184.20125) rotate(-90) scale(0.1 -0.1)">
       <defs>
        <path id="DejaVuSerif-4d" d="M 353 0 
L 353 331 
L 947 331 
L 947 4331 
L 319 4331 
L 319 4666 
L 1678 4666 
L 3316 1344 
L 4953 4666 
L 6228 4666 
L 6228 4331 
L 5606 4331 
L 5606 331 
L 6203 331 
L 6203 0 
L 4378 0 
L 4378 331 
L 4972 331 
L 4972 3938 
L 3372 684 
L 2931 684 
L 1331 3938 
L 1331 331 
L 1925 331 
L 1925 0 
L 353 0 
z
" transform="scale(0.015625)"/>
        <path id="DejaVuSerif-64" d="M 3359 331 
L 3909 331 
L 3909 0 
L 2784 0 
L 2784 519 
Q 2616 206 2355 57 
Q 2094 -91 1709 -91 
Q 1097 -91 708 395 
Q 319 881 319 1663 
Q 319 2444 706 2928 
Q 1094 3413 1709 3413 
Q 2094 3413 2355 3264 
Q 2616 3116 2784 2803 
L 2784 4531 
L 2241 4531 
L 2241 4863 
L 3359 4863 
L 3359 331 
z
M 2784 1497 
L 2784 1825 
Q 2784 2422 2554 2737 
Q 2325 3053 1888 3053 
Q 1444 3053 1217 2703 
Q 991 2353 991 1663 
Q 991 975 1217 622 
Q 1444 269 1888 269 
Q 2325 269 2554 583 
Q 2784 897 2784 1497 
z
" transform="scale(0.015625)"/>
        <path id="DejaVuSerif-69" d="M 622 4353 
Q 622 4497 726 4603 
Q 831 4709 978 4709 
Q 1122 4709 1226 4603 
Q 1331 4497 1331 4353 
Q 1331 4206 1228 4103 
Q 1125 4000 978 4000 
Q 831 4000 726 4103 
Q 622 4206 622 4353 
z
M 1356 331 
L 1900 331 
L 1900 0 
L 231 0 
L 231 331 
L 781 331 
L 781 2988 
L 231 2988 
L 231 3322 
L 1356 3322 
L 1356 331 
z
" transform="scale(0.015625)"/>
        <path id="DejaVuSerif-75" d="M 2266 3322 
L 3341 3322 
L 3341 331 
L 3884 331 
L 3884 0 
L 2766 0 
L 2766 588 
Q 2606 256 2353 82 
Q 2100 -91 1766 -91 
Q 1213 -91 952 223 
Q 691 538 691 1209 
L 691 2988 
L 172 2988 
L 172 3322 
L 1269 3322 
L 1269 1388 
Q 1269 781 1417 556 
Q 1566 331 1947 331 
Q 2347 331 2556 625 
Q 2766 919 2766 1478 
L 2766 2988 
L 2266 2988 
L 2266 3322 
z
" transform="scale(0.015625)"/>
        <path id="DejaVuSerif-6d" d="M 3316 2675 
Q 3481 3041 3739 3227 
Q 3997 3413 4341 3413 
Q 4863 3413 5119 3089 
Q 5375 2766 5375 2113 
L 5375 331 
L 5894 331 
L 5894 0 
L 4300 0 
L 4300 331 
L 4800 331 
L 4800 2047 
Q 4800 2556 4650 2772 
Q 4500 2988 4153 2988 
Q 3769 2988 3567 2697 
Q 3366 2406 3366 1850 
L 3366 331 
L 3866 331 
L 3866 0 
L 2291 0 
L 2291 331 
L 2791 331 
L 2791 2069 
Q 2791 2566 2641 2777 
Q 2491 2988 2144 2988 
Q 1759 2988 1557 2697 
Q 1356 2406 1356 1850 
L 1356 331 
L 1856 331 
L 1856 0 
L 263 0 
L 263 331 
L 781 331 
L 781 2994 
L 231 2994 
L 231 3322 
L 1356 3322 
L 1356 2731 
Q 1516 3063 1762 3238 
Q 2009 3413 2322 3413 
Q 2709 3413 2968 3220 
Q 3228 3028 3316 2675 
z
" transform="scale(0.015625)"/>
       </defs>
       <use xlink:href="#DejaVuSerif-4d"/>
       <use xlink:href="#DejaVuSerif-65" x="102.392578"/>
       <use xlink:href="#DejaVuSerif-64" x="161.572266"/>
       <use xlink:href="#DejaVuSerif-69" x="225.585938"/>
       <use xlink:href="#DejaVuSerif-75" x="257.568359"/>
       <use xlink:href="#DejaVuSerif-6d" x="321.972656"/>
      </g>
     </g>
    </g>
    <g id="xtick_4">
     <g id="line2d_7">
      <path d="M 150.977 135.52 
L 150.977 27.6 
" clip-path="url(#p3be28899d2)" style="fill: none; stroke: #b0b0b0; stroke-width: 0.8; stroke-linecap: square"/>
     </g>
     <g id="line2d_8">
      <g>
       <use xlink:href="#m994bd834b8" x="150.977" y="135.52" style="stroke: #000000; stroke-width: 0.8"/>
      </g>
     </g>
     <g id="text_4">
      <!-- High -->
      <g transform="translate(153.665281 167.280937) rotate(-90) scale(0.1 -0.1)">
       <defs>
        <path id="DejaVuSerif-48" d="M 353 0 
L 353 331 
L 947 331 
L 947 4331 
L 353 4331 
L 353 4666 
L 2175 4666 
L 2175 4331 
L 1581 4331 
L 1581 2719 
L 4000 2719 
L 4000 4331 
L 3406 4331 
L 3406 4666 
L 5228 4666 
L 5228 4331 
L 4634 4331 
L 4634 331 
L 5228 331 
L 5228 0 
L 3406 0 
L 3406 331 
L 4000 331 
L 4000 2338 
L 1581 2338 
L 1581 331 
L 2175 331 
L 2175 0 
L 353 0 
z
" transform="scale(0.015625)"/>
        <path id="DejaVuSerif-67" d="M 3359 2988 
L 3359 72 
Q 3359 -644 2965 -1033 
Q 2572 -1422 1844 -1422 
Q 1516 -1422 1216 -1362 
Q 916 -1303 641 -1184 
L 641 -488 
L 941 -488 
Q 997 -813 1206 -963 
Q 1416 -1113 1806 -1113 
Q 2313 -1113 2548 -827 
Q 2784 -541 2784 72 
L 2784 519 
Q 2616 206 2355 57 
Q 2094 -91 1709 -91 
Q 1097 -91 708 395 
Q 319 881 319 1663 
Q 319 2444 706 2928 
Q 1094 3413 1709 3413 
Q 2094 3413 2355 3264 
Q 2616 3116 2784 2803 
L 2784 3322 
L 3909 3322 
L 3909 2988 
L 3359 2988 
z
M 2784 1825 
Q 2784 2422 2554 2737 
Q 2325 3053 1888 3053 
Q 1444 3053 1217 2703 
Q 991 2353 991 1663 
Q 991 975 1217 622 
Q 1444 269 1888 269 
Q 2325 269 2554 583 
Q 2784 897 2784 1497 
L 2784 1825 
z
" transform="scale(0.015625)"/>
        <path id="DejaVuSerif-68" d="M 263 0 
L 263 331 
L 781 331 
L 781 4531 
L 231 4531 
L 231 4863 
L 1356 4863 
L 1356 2731 
Q 1516 3069 1770 3241 
Q 2025 3413 2363 3413 
Q 2913 3413 3172 3097 
Q 3431 2781 3431 2113 
L 3431 331 
L 3944 331 
L 3944 0 
L 2356 0 
L 2356 331 
L 2853 331 
L 2853 1931 
Q 2853 2541 2704 2764 
Q 2556 2988 2175 2988 
Q 1775 2988 1565 2697 
Q 1356 2406 1356 1850 
L 1356 331 
L 1856 331 
L 1856 0 
L 263 0 
z
" transform="scale(0.015625)"/>
       </defs>
       <use xlink:href="#DejaVuSerif-48"/>
       <use xlink:href="#DejaVuSerif-69" x="87.207031"/>
       <use xlink:href="#DejaVuSerif-67" x="119.189453"/>
       <use xlink:href="#DejaVuSerif-68" x="183.203125"/>
      </g>
     </g>
    </g>
    <g id="xtick_5">
     <g id="line2d_9">
      <path d="M 181.379 135.52 
L 181.379 27.6 
" clip-path="url(#p3be28899d2)" style="fill: none; stroke: #b0b0b0; stroke-width: 0.8; stroke-linecap: square"/>
     </g>
     <g id="line2d_10">
      <g>
       <use xlink:href="#m994bd834b8" x="181.379" y="135.52" style="stroke: #000000; stroke-width: 0.8"/>
      </g>
     </g>
     <g id="text_5">
      <!-- Very high -->
      <g transform="translate(184.067281 190.837187) rotate(-90) scale(0.1 -0.1)">
       <use xlink:href="#DejaVuSerif-56"/>
       <use xlink:href="#DejaVuSerif-65" x="63.091797"/>
       <use xlink:href="#DejaVuSerif-72" x="122.271484"/>
       <use xlink:href="#DejaVuSerif-79" x="170.074219"/>
       <use xlink:href="#DejaVuSerif-20" x="226.568359"/>
       <use xlink:href="#DejaVuSerif-68" x="258.355469"/>
       <use xlink:href="#DejaVuSerif-69" x="322.759766"/>
       <use xlink:href="#DejaVuSerif-67" x="354.742188"/>
       <use xlink:href="#DejaVuSerif-68" x="418.755859"/>
      </g>
     </g>
    </g>
    <g id="text_6">
     <!-- Interest -->
     <g transform="translate(100.486719 202.435625) scale(0.1 -0.1)">
      <defs>
       <path id="DejaVuSerif-49" d="M 1581 331 
L 2175 331 
L 2175 0 
L 353 0 
L 353 331 
L 947 331 
L 947 4331 
L 353 4331 
L 353 4666 
L 2175 4666 
L 2175 4331 
L 1581 4331 
L 1581 331 
z
" transform="scale(0.015625)"/>
       <path id="DejaVuSerif-6e" d="M 263 0 
L 263 331 
L 781 331 
L 781 2988 
L 231 2988 
L 231 3322 
L 1356 3322 
L 1356 2731 
Q 1516 3069 1770 3241 
Q 2025 3413 2363 3413 
Q 2913 3413 3172 3097 
Q 3431 2781 3431 2113 
L 3431 331 
L 3944 331 
L 3944 0 
L 2356 0 
L 2356 331 
L 2853 331 
L 2853 1931 
Q 2853 2541 2703 2767 
Q 2553 2994 2175 2994 
Q 1775 2994 1565 2701 
Q 1356 2409 1356 1850 
L 1356 331 
L 1856 331 
L 1856 0 
L 263 0 
z
" transform="scale(0.015625)"/>
       <path id="DejaVuSerif-74" d="M 691 2988 
L 184 2988 
L 184 3322 
L 691 3322 
L 691 4353 
L 1269 4353 
L 1269 3322 
L 2350 3322 
L 2350 2988 
L 1269 2988 
L 1269 878 
Q 1269 456 1350 337 
Q 1431 219 1650 219 
Q 1875 219 1978 351 
Q 2081 484 2088 781 
L 2522 781 
Q 2497 328 2275 118 
Q 2053 -91 1600 -91 
Q 1103 -91 897 129 
Q 691 350 691 878 
L 691 2988 
z
" transform="scale(0.015625)"/>
       <path id="DejaVuSerif-73" d="M 359 184 
L 359 959 
L 691 959 
Q 703 588 923 403 
Q 1144 219 1575 219 
Q 1963 219 2166 364 
Q 2369 509 2369 788 
Q 2369 1006 2220 1140 
Q 2072 1275 1594 1428 
L 1178 1569 
Q 750 1706 558 1912 
Q 366 2119 366 2438 
Q 366 2894 700 3153 
Q 1034 3413 1625 3413 
Q 1888 3413 2178 3344 
Q 2469 3275 2778 3144 
L 2778 2419 
L 2447 2419 
Q 2434 2741 2221 2922 
Q 2009 3103 1644 3103 
Q 1281 3103 1095 2975 
Q 909 2847 909 2591 
Q 909 2381 1050 2254 
Q 1191 2128 1613 1997 
L 2069 1856 
Q 2541 1709 2748 1489 
Q 2956 1269 2956 922 
Q 2956 450 2595 179 
Q 2234 -91 1600 -91 
Q 1278 -91 972 -22 
Q 666 47 359 184 
z
" transform="scale(0.015625)"/>
      </defs>
      <use xlink:href="#DejaVuSerif-49"/>
      <use xlink:href="#DejaVuSerif-6e" x="39.501953"/>
      <use xlink:href="#DejaVuSerif-74" x="103.90625"/>
      <use xlink:href="#DejaVuSerif-65" x="144.091797"/>
      <use xlink:href="#DejaVuSerif-72" x="203.271484"/>
      <use xlink:href="#DejaVuSerif-65" x="251.074219"/>
      <use xlink:href="#DejaVuSerif-73" x="310.253906"/>
      <use xlink:href="#DejaVuSerif-74" x="361.572266"/>
     </g>
    </g>
   </g>
   <g id="matplotlib.axis_2">
    <g id="ytick_1">
     <g id="line2d_11">
      <path d="M 44.57 135.52 
L 196.58 135.52 
" clip-path="url(#p3be28899d2)" style="fill: none; stroke: #b0b0b0; stroke-width: 0.8; stroke-linecap: square"/>
     </g>
     <g id="line2d_12">
      <defs>
       <path id="mf333c03af6" d="M 0 0 
L -3.5 0 
" style="stroke: #000000; stroke-width: 0.8"/>
      </defs>
      <g>
       <use xlink:href="#mf333c03af6" x="44.57" y="135.52" style="stroke: #000000; stroke-width: 0.8"/>
      </g>
     </g>
     <g id="text_7">
      <!-- 0 -->
      <g transform="translate(31.2075 139.319219) scale(0.1 -0.1)">
       <defs>
        <path id="DejaVuSerif-30" d="M 2034 219 
Q 2513 219 2750 744 
Q 2988 1269 2988 2328 
Q 2988 3391 2750 3916 
Q 2513 4441 2034 4441 
Q 1556 4441 1318 3916 
Q 1081 3391 1081 2328 
Q 1081 1269 1318 744 
Q 1556 219 2034 219 
z
M 2034 -91 
Q 1275 -91 848 546 
Q 422 1184 422 2328 
Q 422 3475 848 4112 
Q 1275 4750 2034 4750 
Q 2797 4750 3222 4112 
Q 3647 3475 3647 2328 
Q 3647 1184 3222 546 
Q 2797 -91 2034 -91 
z
" transform="scale(0.015625)"/>
       </defs>
       <use xlink:href="#DejaVuSerif-30"/>
      </g>
     </g>
    </g>
    <g id="ytick_2">
     <g id="line2d_13">
      <path d="M 44.57 113.176315 
L 196.58 113.176315 
" clip-path="url(#p3be28899d2)" style="fill: none; stroke: #b0b0b0; stroke-width: 0.8; stroke-linecap: square"/>
     </g>
     <g id="line2d_14">
      <g>
       <use xlink:href="#mf333c03af6" x="44.57" y="113.176315" style="stroke: #000000; stroke-width: 0.8"/>
      </g>
     </g>
     <g id="text_8">
      <!-- 10 -->
      <g transform="translate(24.845 116.975533) scale(0.1 -0.1)">
       <defs>
        <path id="DejaVuSerif-31" d="M 909 0 
L 909 331 
L 1722 331 
L 1722 4213 
L 781 3603 
L 781 4013 
L 1919 4750 
L 2350 4750 
L 2350 331 
L 3163 331 
L 3163 0 
L 909 0 
z
" transform="scale(0.015625)"/>
       </defs>
       <use xlink:href="#DejaVuSerif-31"/>
       <use xlink:href="#DejaVuSerif-30" x="63.623047"/>
      </g>
     </g>
    </g>
    <g id="ytick_3">
     <g id="line2d_15">
      <path d="M 44.57 90.832629 
L 196.58 90.832629 
" clip-path="url(#p3be28899d2)" style="fill: none; stroke: #b0b0b0; stroke-width: 0.8; stroke-linecap: square"/>
     </g>
     <g id="line2d_16">
      <g>
       <use xlink:href="#mf333c03af6" x="44.57" y="90.832629" style="stroke: #000000; stroke-width: 0.8"/>
      </g>
     </g>
     <g id="text_9">
      <!-- 20 -->
      <g transform="translate(24.845 94.631848) scale(0.1 -0.1)">
       <defs>
        <path id="DejaVuSerif-32" d="M 819 3553 
L 469 3553 
L 469 4384 
Q 803 4563 1142 4656 
Q 1481 4750 1806 4750 
Q 2534 4750 2956 4397 
Q 3378 4044 3378 3438 
Q 3378 2753 2422 1800 
Q 2347 1728 2309 1691 
L 1131 513 
L 3078 513 
L 3078 1088 
L 3444 1088 
L 3444 0 
L 434 0 
L 434 341 
L 1850 1753 
Q 2319 2222 2519 2614 
Q 2719 3006 2719 3438 
Q 2719 3909 2473 4175 
Q 2228 4441 1797 4441 
Q 1350 4441 1106 4219 
Q 863 3997 819 3553 
z
" transform="scale(0.015625)"/>
       </defs>
       <use xlink:href="#DejaVuSerif-32"/>
       <use xlink:href="#DejaVuSerif-30" x="63.623047"/>
      </g>
     </g>
    </g>
    <g id="ytick_4">
     <g id="line2d_17">
      <path d="M 44.57 68.488944 
L 196.58 68.488944 
" clip-path="url(#p3be28899d2)" style="fill: none; stroke: #b0b0b0; stroke-width: 0.8; stroke-linecap: square"/>
     </g>
     <g id="line2d_18">
      <g>
       <use xlink:href="#mf333c03af6" x="44.57" y="68.488944" style="stroke: #000000; stroke-width: 0.8"/>
      </g>
     </g>
     <g id="text_10">
      <!-- 30 -->
      <g transform="translate(24.845 72.288163) scale(0.1 -0.1)">
       <defs>
        <path id="DejaVuSerif-33" d="M 622 4469 
Q 988 4606 1323 4678 
Q 1659 4750 1953 4750 
Q 2638 4750 3022 4454 
Q 3406 4159 3406 3634 
Q 3406 3213 3140 2930 
Q 2875 2647 2388 2547 
Q 2963 2466 3280 2130 
Q 3597 1794 3597 1259 
Q 3597 606 3158 257 
Q 2719 -91 1894 -91 
Q 1528 -91 1179 -12 
Q 831 66 488 225 
L 488 1131 
L 838 1131 
Q 869 681 1141 450 
Q 1413 219 1906 219 
Q 2384 219 2661 495 
Q 2938 772 2938 1253 
Q 2938 1803 2653 2086 
Q 2369 2369 1819 2369 
L 1522 2369 
L 1522 2688 
L 1678 2688 
Q 2225 2688 2498 2914 
Q 2772 3141 2772 3597 
Q 2772 4006 2547 4223 
Q 2322 4441 1900 4441 
Q 1478 4441 1245 4241 
Q 1013 4041 972 3647 
L 622 3647 
L 622 4469 
z
" transform="scale(0.015625)"/>
       </defs>
       <use xlink:href="#DejaVuSerif-33"/>
       <use xlink:href="#DejaVuSerif-30" x="63.623047"/>
      </g>
     </g>
    </g>
    <g id="ytick_5">
     <g id="line2d_19">
      <path d="M 44.57 46.145259 
L 196.58 46.145259 
" clip-path="url(#p3be28899d2)" style="fill: none; stroke: #b0b0b0; stroke-width: 0.8; stroke-linecap: square"/>
     </g>
     <g id="line2d_20">
      <g>
       <use xlink:href="#mf333c03af6" x="44.57" y="46.145259" style="stroke: #000000; stroke-width: 0.8"/>
      </g>
     </g>
     <g id="text_11">
      <!-- 40 -->
      <g transform="translate(24.845 49.944478) scale(0.1 -0.1)">
       <defs>
        <path id="DejaVuSerif-34" d="M 2234 1581 
L 2234 4063 
L 641 1581 
L 2234 1581 
z
M 3609 0 
L 1484 0 
L 1484 331 
L 2234 331 
L 2234 1247 
L 197 1247 
L 197 1588 
L 2241 4750 
L 2859 4750 
L 2859 1581 
L 3750 1581 
L 3750 1247 
L 2859 1247 
L 2859 331 
L 3609 331 
L 3609 0 
z
" transform="scale(0.015625)"/>
       </defs>
       <use xlink:href="#DejaVuSerif-34"/>
       <use xlink:href="#DejaVuSerif-30" x="63.623047"/>
      </g>
     </g>
    </g>
    <g id="text_12">
     <!-- #Users -->
     <g transform="translate(18.765313 100.444375) rotate(-90) scale(0.1 -0.1)">
      <defs>
       <path id="DejaVuSerif-23" d="M 3256 2816 
L 2375 2816 
L 2113 1772 
L 3003 1772 
L 3256 2816 
z
M 2816 4594 
L 2497 3297 
L 3378 3297 
L 3700 4594 
L 4238 4594 
L 3909 3297 
L 4872 3297 
L 4872 2816 
L 3788 2816 
L 3531 1772 
L 4513 1772 
L 4513 1294 
L 3413 1294 
L 3091 0 
L 2553 0 
L 2881 1294 
L 1997 1294 
L 1672 0 
L 1141 0 
L 1459 1294 
L 494 1294 
L 494 1772 
L 1581 1772 
L 1838 2816 
L 850 2816 
L 850 3297 
L 1959 3297 
L 2284 4594 
L 2816 4594 
z
" transform="scale(0.015625)"/>
       <path id="DejaVuSerif-55" d="M 897 4331 
L 300 4331 
L 300 4666 
L 2125 4666 
L 2125 4331 
L 1528 4331 
L 1528 1919 
Q 1528 1025 1820 672 
Q 2113 319 2828 319 
Q 3544 319 3836 672 
Q 4128 1025 4128 1919 
L 4128 4331 
L 3531 4331 
L 3531 4666 
L 5106 4666 
L 5106 4331 
L 4513 4331 
L 4513 1856 
Q 4513 791 4103 350 
Q 3694 -91 2713 -91 
Q 1731 -91 1314 353 
Q 897 797 897 1856 
L 897 4331 
z
" transform="scale(0.015625)"/>
      </defs>
      <use xlink:href="#DejaVuSerif-23"/>
      <use xlink:href="#DejaVuSerif-55" x="83.789062"/>
      <use xlink:href="#DejaVuSerif-73" x="168.066406"/>
      <use xlink:href="#DejaVuSerif-65" x="219.384766"/>
      <use xlink:href="#DejaVuSerif-72" x="278.564453"/>
      <use xlink:href="#DejaVuSerif-73" x="326.367188"/>
     </g>
    </g>
   </g>
   <g id="patch_3">
    <path d="M 52.1705 135.52 
L 67.3715 135.52 
L 67.3715 131.051263 
L 52.1705 131.051263 
z
" clip-path="url(#p3be28899d2)" style="fill: #1f77b4"/>
   </g>
   <g id="patch_4">
    <path d="M 82.5725 135.52 
L 97.7735 135.52 
L 97.7735 113.176315 
L 82.5725 113.176315 
z
" clip-path="url(#p3be28899d2)" style="fill: #1f77b4"/>
   </g>
   <g id="patch_5">
    <path d="M 112.9745 135.52 
L 128.1755 135.52 
L 128.1755 50.613996 
L 112.9745 50.613996 
z
" clip-path="url(#p3be28899d2)" style="fill: #1f77b4"/>
   </g>
   <g id="patch_6">
    <path d="M 143.3765 135.52 
L 158.5775 135.52 
L 158.5775 72.957681 
L 143.3765 72.957681 
z
" clip-path="url(#p3be28899d2)" style="fill: #1f77b4"/>
   </g>
   <g id="patch_7">
    <path d="M 173.7785 135.52 
L 188.9795 135.52 
L 188.9795 117.645052 
L 173.7785 117.645052 
z
" clip-path="url(#p3be28899d2)" style="fill: #1f77b4"/>
   </g>
   <g id="patch_8">
    <path d="M 44.57 135.52 
L 44.57 27.6 
" style="fill: none; stroke: #000000; stroke-width: 0.8; stroke-linejoin: miter; stroke-linecap: square"/>
   </g>
   <g id="patch_9">
    <path d="M 196.58 135.52 
L 196.58 27.6 
" style="fill: none; stroke: #000000; stroke-width: 0.8; stroke-linejoin: miter; stroke-linecap: square"/>
   </g>
   <g id="patch_10">
    <path d="M 44.57 135.52 
L 196.58 135.52 
" style="fill: none; stroke: #000000; stroke-width: 0.8; stroke-linejoin: miter; stroke-linecap: square"/>
   </g>
   <g id="patch_11">
    <path d="M 44.57 27.6 
L 196.58 27.6 
" style="fill: none; stroke: #000000; stroke-width: 0.8; stroke-linejoin: miter; stroke-linecap: square"/>
   </g>
   <g id="text_13">
    <!-- $I2$ MultiReg -->
    <g transform="translate(84.275 21.6) scale(0.12 -0.12)">
     <defs>
      <path id="DejaVuSerif-Italic-49" d="M 1194 331 
L 1788 331 
L 1725 0 
L -97 0 
L -34 331 
L 559 331 
L 1338 4331 
L 744 4331 
L 809 4666 
L 2631 4666 
L 2566 4331 
L 1972 4331 
L 1194 331 
z
" transform="scale(0.015625)"/>
      <path id="DejaVuSerif-52" d="M 3066 2316 
Q 3284 2256 3442 2114 
Q 3600 1972 3725 1716 
L 4403 331 
L 4972 331 
L 4972 0 
L 3872 0 
L 3144 1484 
Q 2934 1916 2759 2042 
Q 2584 2169 2278 2169 
L 1581 2169 
L 1581 331 
L 2241 331 
L 2241 0 
L 353 0 
L 353 331 
L 947 331 
L 947 4331 
L 353 4331 
L 353 4666 
L 2719 4666 
Q 3400 4666 3770 4341 
Q 4141 4016 4141 3419 
Q 4141 2938 3870 2661 
Q 3600 2384 3066 2316 
z
M 1581 2503 
L 2503 2503 
Q 2975 2503 3200 2726 
Q 3425 2950 3425 3419 
Q 3425 3888 3200 4109 
Q 2975 4331 2503 4331 
L 1581 4331 
L 1581 2503 
z
" transform="scale(0.015625)"/>
     </defs>
     <use xlink:href="#DejaVuSerif-Italic-49" transform="translate(0 0.015625)"/>
     <use xlink:href="#DejaVuSerif-32" transform="translate(39.501953 0.015625)"/>
     <use xlink:href="#DejaVuSerif-20" transform="translate(103.125 0.015625)"/>
     <use xlink:href="#DejaVuSerif-4d" transform="translate(134.912109 0.015625)"/>
     <use xlink:href="#DejaVuSerif-75" transform="translate(237.304688 0.015625)"/>
     <use xlink:href="#DejaVuSerif-6c" transform="translate(301.708984 0.015625)"/>
     <use xlink:href="#DejaVuSerif-74" transform="translate(333.691406 0.015625)"/>
     <use xlink:href="#DejaVuSerif-69" transform="translate(373.876953 0.015625)"/>
     <use xlink:href="#DejaVuSerif-52" transform="translate(405.859375 0.015625)"/>
     <use xlink:href="#DejaVuSerif-65" transform="translate(481.152344 0.015625)"/>
     <use xlink:href="#DejaVuSerif-67" transform="translate(540.332031 0.015625)"/>
    </g>
   </g>
  </g>
  <g id="axes_2">
   <g id="patch_12">
    <path d="M 210.88 135.52 
L 362.89 135.52 
L 362.89 27.6 
L 210.88 27.6 
z
" style="fill: #ffffff"/>
   </g>
   <g id="matplotlib.axis_3">
    <g id="xtick_6">
     <g id="line2d_21">
      <path d="M 226.081 135.52 
L 226.081 27.6 
" clip-path="url(#pe785dfae3e)" style="fill: none; stroke: #b0b0b0; stroke-width: 0.8; stroke-linecap: square"/>
     </g>
     <g id="line2d_22">
      <g>
       <use xlink:href="#m994bd834b8" x="226.081" y="135.52" style="stroke: #000000; stroke-width: 0.8"/>
      </g>
     </g>
     <g id="text_14">
      <!-- Very low -->
      <g transform="translate(228.769281 186.134062) rotate(-90) scale(0.1 -0.1)">
       <use xlink:href="#DejaVuSerif-56"/>
       <use xlink:href="#DejaVuSerif-65" x="63.091797"/>
       <use xlink:href="#DejaVuSerif-72" x="122.271484"/>
       <use xlink:href="#DejaVuSerif-79" x="170.074219"/>
       <use xlink:href="#DejaVuSerif-20" x="226.568359"/>
       <use xlink:href="#DejaVuSerif-6c" x="258.355469"/>
       <use xlink:href="#DejaVuSerif-6f" x="290.337891"/>
       <use xlink:href="#DejaVuSerif-77" x="350.542969"/>
      </g>
     </g>
    </g>
    <g id="xtick_7">
     <g id="line2d_23">
      <path d="M 256.483 135.52 
L 256.483 27.6 
" clip-path="url(#pe785dfae3e)" style="fill: none; stroke: #b0b0b0; stroke-width: 0.8; stroke-linecap: square"/>
     </g>
     <g id="line2d_24">
      <g>
       <use xlink:href="#m994bd834b8" x="256.483" y="135.52" style="stroke: #000000; stroke-width: 0.8"/>
      </g>
     </g>
     <g id="text_15">
      <!-- Low -->
      <g transform="translate(259.242375 163.740313) rotate(-90) scale(0.1 -0.1)">
       <use xlink:href="#DejaVuSerif-4c"/>
       <use xlink:href="#DejaVuSerif-6f" x="66.40625"/>
       <use xlink:href="#DejaVuSerif-77" x="126.611328"/>
      </g>
     </g>
    </g>
    <g id="xtick_8">
     <g id="line2d_25">
      <path d="M 286.885 135.52 
L 286.885 27.6 
" clip-path="url(#pe785dfae3e)" style="fill: none; stroke: #b0b0b0; stroke-width: 0.8; stroke-linecap: square"/>
     </g>
     <g id="line2d_26">
      <g>
       <use xlink:href="#m994bd834b8" x="286.885" y="135.52" style="stroke: #000000; stroke-width: 0.8"/>
      </g>
     </g>
     <g id="text_16">
      <!-- Medium -->
      <g transform="translate(289.644375 184.20125) rotate(-90) scale(0.1 -0.1)">
       <use xlink:href="#DejaVuSerif-4d"/>
       <use xlink:href="#DejaVuSerif-65" x="102.392578"/>
       <use xlink:href="#DejaVuSerif-64" x="161.572266"/>
       <use xlink:href="#DejaVuSerif-69" x="225.585938"/>
       <use xlink:href="#DejaVuSerif-75" x="257.568359"/>
       <use xlink:href="#DejaVuSerif-6d" x="321.972656"/>
      </g>
     </g>
    </g>
    <g id="xtick_9">
     <g id="line2d_27">
      <path d="M 317.287 135.52 
L 317.287 27.6 
" clip-path="url(#pe785dfae3e)" style="fill: none; stroke: #b0b0b0; stroke-width: 0.8; stroke-linecap: square"/>
     </g>
     <g id="line2d_28">
      <g>
       <use xlink:href="#m994bd834b8" x="317.287" y="135.52" style="stroke: #000000; stroke-width: 0.8"/>
      </g>
     </g>
     <g id="text_17">
      <!-- High -->
      <g transform="translate(319.975281 167.280937) rotate(-90) scale(0.1 -0.1)">
       <use xlink:href="#DejaVuSerif-48"/>
       <use xlink:href="#DejaVuSerif-69" x="87.207031"/>
       <use xlink:href="#DejaVuSerif-67" x="119.189453"/>
       <use xlink:href="#DejaVuSerif-68" x="183.203125"/>
      </g>
     </g>
    </g>
    <g id="xtick_10">
     <g id="line2d_29">
      <path d="M 347.689 135.52 
L 347.689 27.6 
" clip-path="url(#pe785dfae3e)" style="fill: none; stroke: #b0b0b0; stroke-width: 0.8; stroke-linecap: square"/>
     </g>
     <g id="line2d_30">
      <g>
       <use xlink:href="#m994bd834b8" x="347.689" y="135.52" style="stroke: #000000; stroke-width: 0.8"/>
      </g>
     </g>
     <g id="text_18">
      <!-- Very high -->
      <g transform="translate(350.377281 190.837187) rotate(-90) scale(0.1 -0.1)">
       <use xlink:href="#DejaVuSerif-56"/>
       <use xlink:href="#DejaVuSerif-65" x="63.091797"/>
       <use xlink:href="#DejaVuSerif-72" x="122.271484"/>
       <use xlink:href="#DejaVuSerif-79" x="170.074219"/>
       <use xlink:href="#DejaVuSerif-20" x="226.568359"/>
       <use xlink:href="#DejaVuSerif-68" x="258.355469"/>
       <use xlink:href="#DejaVuSerif-69" x="322.759766"/>
       <use xlink:href="#DejaVuSerif-67" x="354.742188"/>
       <use xlink:href="#DejaVuSerif-68" x="418.755859"/>
      </g>
     </g>
    </g>
    <g id="text_19">
     <!-- Interest -->
     <g transform="translate(266.796719 202.435625) scale(0.1 -0.1)">
      <use xlink:href="#DejaVuSerif-49"/>
      <use xlink:href="#DejaVuSerif-6e" x="39.501953"/>
      <use xlink:href="#DejaVuSerif-74" x="103.90625"/>
      <use xlink:href="#DejaVuSerif-65" x="144.091797"/>
      <use xlink:href="#DejaVuSerif-72" x="203.271484"/>
      <use xlink:href="#DejaVuSerif-65" x="251.074219"/>
      <use xlink:href="#DejaVuSerif-73" x="310.253906"/>
      <use xlink:href="#DejaVuSerif-74" x="361.572266"/>
     </g>
    </g>
   </g>
   <g id="matplotlib.axis_4">
    <g id="ytick_6">
     <g id="line2d_31">
      <path d="M 210.88 135.52 
L 362.89 135.52 
" clip-path="url(#pe785dfae3e)" style="fill: none; stroke: #b0b0b0; stroke-width: 0.8; stroke-linecap: square"/>
     </g>
     <g id="line2d_32">
      <g>
       <use xlink:href="#mf333c03af6" x="210.88" y="135.52" style="stroke: #000000; stroke-width: 0.8"/>
      </g>
     </g>
    </g>
    <g id="ytick_7">
     <g id="line2d_33">
      <path d="M 210.88 113.176315 
L 362.89 113.176315 
" clip-path="url(#pe785dfae3e)" style="fill: none; stroke: #b0b0b0; stroke-width: 0.8; stroke-linecap: square"/>
     </g>
     <g id="line2d_34">
      <g>
       <use xlink:href="#mf333c03af6" x="210.88" y="113.176315" style="stroke: #000000; stroke-width: 0.8"/>
      </g>
     </g>
    </g>
    <g id="ytick_8">
     <g id="line2d_35">
      <path d="M 210.88 90.832629 
L 362.89 90.832629 
" clip-path="url(#pe785dfae3e)" style="fill: none; stroke: #b0b0b0; stroke-width: 0.8; stroke-linecap: square"/>
     </g>
     <g id="line2d_36">
      <g>
       <use xlink:href="#mf333c03af6" x="210.88" y="90.832629" style="stroke: #000000; stroke-width: 0.8"/>
      </g>
     </g>
    </g>
    <g id="ytick_9">
     <g id="line2d_37">
      <path d="M 210.88 68.488944 
L 362.89 68.488944 
" clip-path="url(#pe785dfae3e)" style="fill: none; stroke: #b0b0b0; stroke-width: 0.8; stroke-linecap: square"/>
     </g>
     <g id="line2d_38">
      <g>
       <use xlink:href="#mf333c03af6" x="210.88" y="68.488944" style="stroke: #000000; stroke-width: 0.8"/>
      </g>
     </g>
    </g>
    <g id="ytick_10">
     <g id="line2d_39">
      <path d="M 210.88 46.145259 
L 362.89 46.145259 
" clip-path="url(#pe785dfae3e)" style="fill: none; stroke: #b0b0b0; stroke-width: 0.8; stroke-linecap: square"/>
     </g>
     <g id="line2d_40">
      <g>
       <use xlink:href="#mf333c03af6" x="210.88" y="46.145259" style="stroke: #000000; stroke-width: 0.8"/>
      </g>
     </g>
    </g>
   </g>
   <g id="patch_13">
    <path d="M 218.4805 135.52 
L 233.6815 135.52 
L 233.6815 128.816894 
L 218.4805 128.816894 
z
" clip-path="url(#pe785dfae3e)" style="fill: #1f77b4"/>
   </g>
   <g id="patch_14">
    <path d="M 248.8825 135.52 
L 264.0835 135.52 
L 264.0835 84.129524 
L 248.8825 84.129524 
z
" clip-path="url(#pe785dfae3e)" style="fill: #1f77b4"/>
   </g>
   <g id="patch_15">
    <path d="M 279.2845 135.52 
L 294.4855 135.52 
L 294.4855 46.145259 
L 279.2845 46.145259 
z
" clip-path="url(#pe785dfae3e)" style="fill: #1f77b4"/>
   </g>
   <g id="patch_16">
    <path d="M 309.6865 135.52 
L 324.8875 135.52 
L 324.8875 93.066998 
L 309.6865 93.066998 
z
" clip-path="url(#pe785dfae3e)" style="fill: #1f77b4"/>
   </g>
   <g id="patch_17">
    <path d="M 340.0885 135.52 
L 355.2895 135.52 
L 355.2895 133.285631 
L 340.0885 133.285631 
z
" clip-path="url(#pe785dfae3e)" style="fill: #1f77b4"/>
   </g>
   <g id="patch_18">
    <path d="M 210.88 135.52 
L 210.88 27.6 
" style="fill: none; stroke: #000000; stroke-width: 0.8; stroke-linejoin: miter; stroke-linecap: square"/>
   </g>
   <g id="patch_19">
    <path d="M 362.89 135.52 
L 362.89 27.6 
" style="fill: none; stroke: #000000; stroke-width: 0.8; stroke-linejoin: miter; stroke-linecap: square"/>
   </g>
   <g id="patch_20">
    <path d="M 210.88 135.52 
L 362.89 135.52 
" style="fill: none; stroke: #000000; stroke-width: 0.8; stroke-linejoin: miter; stroke-linecap: square"/>
   </g>
   <g id="patch_21">
    <path d="M 210.88 27.6 
L 362.89 27.6 
" style="fill: none; stroke: #000000; stroke-width: 0.8; stroke-linejoin: miter; stroke-linecap: square"/>
   </g>
   <g id="text_20">
    <!-- $I2$ Polyfit -->
    <g transform="translate(259.225 21.6) scale(0.12 -0.12)">
     <defs>
      <path id="DejaVuSerif-50" d="M 1581 2375 
L 2406 2375 
Q 2872 2375 3115 2626 
Q 3359 2878 3359 3353 
Q 3359 3831 3115 4081 
Q 2872 4331 2406 4331 
L 1581 4331 
L 1581 2375 
z
M 353 0 
L 353 331 
L 947 331 
L 947 4331 
L 353 4331 
L 353 4666 
L 2559 4666 
Q 3259 4666 3668 4311 
Q 4078 3956 4078 3353 
Q 4078 2753 3668 2397 
Q 3259 2041 2559 2041 
L 1581 2041 
L 1581 331 
L 2303 331 
L 2303 0 
L 353 0 
z
" transform="scale(0.015625)"/>
      <path id="DejaVuSerif-66" d="M 2753 4078 
L 2450 4078 
Q 2447 4313 2317 4434 
Q 2188 4556 1941 4556 
Q 1619 4556 1487 4379 
Q 1356 4203 1356 3750 
L 1356 3322 
L 2284 3322 
L 2284 2988 
L 1356 2988 
L 1356 331 
L 2094 331 
L 2094 0 
L 231 0 
L 231 331 
L 781 331 
L 781 2988 
L 231 2988 
L 231 3322 
L 781 3322 
L 781 3738 
Q 781 4294 1070 4578 
Q 1359 4863 1919 4863 
Q 2128 4863 2337 4825 
Q 2547 4788 2753 4709 
L 2753 4078 
z
" transform="scale(0.015625)"/>
     </defs>
     <use xlink:href="#DejaVuSerif-Italic-49" transform="translate(0 0.015625)"/>
     <use xlink:href="#DejaVuSerif-32" transform="translate(39.501953 0.015625)"/>
     <use xlink:href="#DejaVuSerif-20" transform="translate(103.125 0.015625)"/>
     <use xlink:href="#DejaVuSerif-50" transform="translate(134.912109 0.015625)"/>
     <use xlink:href="#DejaVuSerif-6f" transform="translate(202.197266 0.015625)"/>
     <use xlink:href="#DejaVuSerif-6c" transform="translate(262.402344 0.015625)"/>
     <use xlink:href="#DejaVuSerif-79" transform="translate(294.384766 0.015625)"/>
     <use xlink:href="#DejaVuSerif-66" transform="translate(350.878906 0.015625)"/>
     <use xlink:href="#DejaVuSerif-69" transform="translate(387.890625 0.015625)"/>
     <use xlink:href="#DejaVuSerif-74" transform="translate(419.873047 0.015625)"/>
    </g>
   </g>
  </g>
  <g id="axes_3">
   <g id="patch_22">
    <path d="M 377.19 135.52 
L 529.2 135.52 
L 529.2 27.6 
L 377.19 27.6 
z
" style="fill: #ffffff"/>
   </g>
   <g id="matplotlib.axis_5">
    <g id="xtick_11">
     <g id="line2d_41">
      <path d="M 392.391 135.52 
L 392.391 27.6 
" clip-path="url(#p48687aa643)" style="fill: none; stroke: #b0b0b0; stroke-width: 0.8; stroke-linecap: square"/>
     </g>
     <g id="line2d_42">
      <g>
       <use xlink:href="#m994bd834b8" x="392.391" y="135.52" style="stroke: #000000; stroke-width: 0.8"/>
      </g>
     </g>
     <g id="text_21">
      <!-- Very low -->
      <g transform="translate(395.079281 186.134062) rotate(-90) scale(0.1 -0.1)">
       <use xlink:href="#DejaVuSerif-56"/>
       <use xlink:href="#DejaVuSerif-65" x="63.091797"/>
       <use xlink:href="#DejaVuSerif-72" x="122.271484"/>
       <use xlink:href="#DejaVuSerif-79" x="170.074219"/>
       <use xlink:href="#DejaVuSerif-20" x="226.568359"/>
       <use xlink:href="#DejaVuSerif-6c" x="258.355469"/>
       <use xlink:href="#DejaVuSerif-6f" x="290.337891"/>
       <use xlink:href="#DejaVuSerif-77" x="350.542969"/>
      </g>
     </g>
    </g>
    <g id="xtick_12">
     <g id="line2d_43">
      <path d="M 422.793 135.52 
L 422.793 27.6 
" clip-path="url(#p48687aa643)" style="fill: none; stroke: #b0b0b0; stroke-width: 0.8; stroke-linecap: square"/>
     </g>
     <g id="line2d_44">
      <g>
       <use xlink:href="#m994bd834b8" x="422.793" y="135.52" style="stroke: #000000; stroke-width: 0.8"/>
      </g>
     </g>
     <g id="text_22">
      <!-- Low -->
      <g transform="translate(425.552375 163.740313) rotate(-90) scale(0.1 -0.1)">
       <use xlink:href="#DejaVuSerif-4c"/>
       <use xlink:href="#DejaVuSerif-6f" x="66.40625"/>
       <use xlink:href="#DejaVuSerif-77" x="126.611328"/>
      </g>
     </g>
    </g>
    <g id="xtick_13">
     <g id="line2d_45">
      <path d="M 453.195 135.52 
L 453.195 27.6 
" clip-path="url(#p48687aa643)" style="fill: none; stroke: #b0b0b0; stroke-width: 0.8; stroke-linecap: square"/>
     </g>
     <g id="line2d_46">
      <g>
       <use xlink:href="#m994bd834b8" x="453.195" y="135.52" style="stroke: #000000; stroke-width: 0.8"/>
      </g>
     </g>
     <g id="text_23">
      <!-- Medium -->
      <g transform="translate(455.954375 184.20125) rotate(-90) scale(0.1 -0.1)">
       <use xlink:href="#DejaVuSerif-4d"/>
       <use xlink:href="#DejaVuSerif-65" x="102.392578"/>
       <use xlink:href="#DejaVuSerif-64" x="161.572266"/>
       <use xlink:href="#DejaVuSerif-69" x="225.585938"/>
       <use xlink:href="#DejaVuSerif-75" x="257.568359"/>
       <use xlink:href="#DejaVuSerif-6d" x="321.972656"/>
      </g>
     </g>
    </g>
    <g id="xtick_14">
     <g id="line2d_47">
      <path d="M 483.597 135.52 
L 483.597 27.6 
" clip-path="url(#p48687aa643)" style="fill: none; stroke: #b0b0b0; stroke-width: 0.8; stroke-linecap: square"/>
     </g>
     <g id="line2d_48">
      <g>
       <use xlink:href="#m994bd834b8" x="483.597" y="135.52" style="stroke: #000000; stroke-width: 0.8"/>
      </g>
     </g>
     <g id="text_24">
      <!-- High -->
      <g transform="translate(486.285281 167.280937) rotate(-90) scale(0.1 -0.1)">
       <use xlink:href="#DejaVuSerif-48"/>
       <use xlink:href="#DejaVuSerif-69" x="87.207031"/>
       <use xlink:href="#DejaVuSerif-67" x="119.189453"/>
       <use xlink:href="#DejaVuSerif-68" x="183.203125"/>
      </g>
     </g>
    </g>
    <g id="xtick_15">
     <g id="line2d_49">
      <path d="M 513.999 135.52 
L 513.999 27.6 
" clip-path="url(#p48687aa643)" style="fill: none; stroke: #b0b0b0; stroke-width: 0.8; stroke-linecap: square"/>
     </g>
     <g id="line2d_50">
      <g>
       <use xlink:href="#m994bd834b8" x="513.999" y="135.52" style="stroke: #000000; stroke-width: 0.8"/>
      </g>
     </g>
     <g id="text_25">
      <!-- Very high -->
      <g transform="translate(516.687281 190.837187) rotate(-90) scale(0.1 -0.1)">
       <use xlink:href="#DejaVuSerif-56"/>
       <use xlink:href="#DejaVuSerif-65" x="63.091797"/>
       <use xlink:href="#DejaVuSerif-72" x="122.271484"/>
       <use xlink:href="#DejaVuSerif-79" x="170.074219"/>
       <use xlink:href="#DejaVuSerif-20" x="226.568359"/>
       <use xlink:href="#DejaVuSerif-68" x="258.355469"/>
       <use xlink:href="#DejaVuSerif-69" x="322.759766"/>
       <use xlink:href="#DejaVuSerif-67" x="354.742188"/>
       <use xlink:href="#DejaVuSerif-68" x="418.755859"/>
      </g>
     </g>
    </g>
    <g id="text_26">
     <!-- Perceived value -->
     <g transform="translate(413.18875 202.435625) scale(0.1 -0.1)">
      <defs>
       <path id="DejaVuSerif-63" d="M 3291 997 
Q 3169 466 2822 187 
Q 2475 -91 1925 -91 
Q 1200 -91 759 389 
Q 319 869 319 1663 
Q 319 2459 759 2936 
Q 1200 3413 1925 3413 
Q 2241 3413 2553 3339 
Q 2866 3266 3181 3116 
L 3181 2266 
L 2847 2266 
Q 2781 2703 2561 2903 
Q 2341 3103 1931 3103 
Q 1466 3103 1228 2742 
Q 991 2381 991 1663 
Q 991 944 1227 581 
Q 1463 219 1931 219 
Q 2303 219 2525 412 
Q 2747 606 2828 997 
L 3291 997 
z
" transform="scale(0.015625)"/>
       <path id="DejaVuSerif-76" d="M 1581 0 
L 359 2988 
L -19 2988 
L -19 3322 
L 1509 3322 
L 1509 2988 
L 978 2988 
L 1913 703 
L 2847 2988 
L 2350 2988 
L 2350 3322 
L 3597 3322 
L 3597 2988 
L 3225 2988 
L 2003 0 
L 1581 0 
z
" transform="scale(0.015625)"/>
       <path id="DejaVuSerif-61" d="M 2547 1044 
L 2547 1747 
L 1806 1747 
Q 1378 1747 1168 1562 
Q 959 1378 959 997 
Q 959 650 1171 447 
Q 1384 244 1747 244 
Q 2106 244 2326 466 
Q 2547 688 2547 1044 
z
M 3122 2075 
L 3122 331 
L 3634 331 
L 3634 0 
L 2547 0 
L 2547 359 
Q 2356 128 2106 18 
Q 1856 -91 1522 -91 
Q 969 -91 644 203 
Q 319 497 319 997 
Q 319 1513 691 1797 
Q 1063 2081 1741 2081 
L 2547 2081 
L 2547 2309 
Q 2547 2688 2317 2895 
Q 2088 3103 1672 3103 
Q 1328 3103 1125 2947 
Q 922 2791 872 2484 
L 575 2484 
L 575 3156 
Q 875 3284 1158 3348 
Q 1441 3413 1709 3413 
Q 2400 3413 2761 3070 
Q 3122 2728 3122 2075 
z
" transform="scale(0.015625)"/>
      </defs>
      <use xlink:href="#DejaVuSerif-50"/>
      <use xlink:href="#DejaVuSerif-65" x="62.785156"/>
      <use xlink:href="#DejaVuSerif-72" x="121.964844"/>
      <use xlink:href="#DejaVuSerif-63" x="169.767578"/>
      <use xlink:href="#DejaVuSerif-65" x="225.773438"/>
      <use xlink:href="#DejaVuSerif-69" x="284.953125"/>
      <use xlink:href="#DejaVuSerif-76" x="316.935547"/>
      <use xlink:href="#DejaVuSerif-65" x="373.429688"/>
      <use xlink:href="#DejaVuSerif-64" x="432.609375"/>
      <use xlink:href="#DejaVuSerif-20" x="496.623047"/>
      <use xlink:href="#DejaVuSerif-76" x="528.410156"/>
      <use xlink:href="#DejaVuSerif-61" x="584.904297"/>
      <use xlink:href="#DejaVuSerif-6c" x="644.523438"/>
      <use xlink:href="#DejaVuSerif-75" x="676.505859"/>
      <use xlink:href="#DejaVuSerif-65" x="740.910156"/>
     </g>
    </g>
   </g>
   <g id="matplotlib.axis_6">
    <g id="ytick_11">
     <g id="line2d_51">
      <path d="M 377.19 135.52 
L 529.2 135.52 
" clip-path="url(#p48687aa643)" style="fill: none; stroke: #b0b0b0; stroke-width: 0.8; stroke-linecap: square"/>
     </g>
     <g id="line2d_52">
      <g>
       <use xlink:href="#mf333c03af6" x="377.19" y="135.52" style="stroke: #000000; stroke-width: 0.8"/>
      </g>
     </g>
    </g>
    <g id="ytick_12">
     <g id="line2d_53">
      <path d="M 377.19 113.176315 
L 529.2 113.176315 
" clip-path="url(#p48687aa643)" style="fill: none; stroke: #b0b0b0; stroke-width: 0.8; stroke-linecap: square"/>
     </g>
     <g id="line2d_54">
      <g>
       <use xlink:href="#mf333c03af6" x="377.19" y="113.176315" style="stroke: #000000; stroke-width: 0.8"/>
      </g>
     </g>
    </g>
    <g id="ytick_13">
     <g id="line2d_55">
      <path d="M 377.19 90.832629 
L 529.2 90.832629 
" clip-path="url(#p48687aa643)" style="fill: none; stroke: #b0b0b0; stroke-width: 0.8; stroke-linecap: square"/>
     </g>
     <g id="line2d_56">
      <g>
       <use xlink:href="#mf333c03af6" x="377.19" y="90.832629" style="stroke: #000000; stroke-width: 0.8"/>
      </g>
     </g>
    </g>
    <g id="ytick_14">
     <g id="line2d_57">
      <path d="M 377.19 68.488944 
L 529.2 68.488944 
" clip-path="url(#p48687aa643)" style="fill: none; stroke: #b0b0b0; stroke-width: 0.8; stroke-linecap: square"/>
     </g>
     <g id="line2d_58">
      <g>
       <use xlink:href="#mf333c03af6" x="377.19" y="68.488944" style="stroke: #000000; stroke-width: 0.8"/>
      </g>
     </g>
    </g>
    <g id="ytick_15">
     <g id="line2d_59">
      <path d="M 377.19 46.145259 
L 529.2 46.145259 
" clip-path="url(#p48687aa643)" style="fill: none; stroke: #b0b0b0; stroke-width: 0.8; stroke-linecap: square"/>
     </g>
     <g id="line2d_60">
      <g>
       <use xlink:href="#mf333c03af6" x="377.19" y="46.145259" style="stroke: #000000; stroke-width: 0.8"/>
      </g>
     </g>
    </g>
   </g>
   <g id="patch_23">
    <path d="M 384.7905 135.52 
L 399.9915 135.52 
L 399.9915 135.52 
L 384.7905 135.52 
z
" clip-path="url(#p48687aa643)" style="fill: #1f77b4"/>
   </g>
   <g id="patch_24">
    <path d="M 415.1925 135.52 
L 430.3935 135.52 
L 430.3935 122.113789 
L 415.1925 122.113789 
z
" clip-path="url(#p48687aa643)" style="fill: #1f77b4"/>
   </g>
   <g id="patch_25">
    <path d="M 445.5945 135.52 
L 460.7955 135.52 
L 460.7955 32.739048 
L 445.5945 32.739048 
z
" clip-path="url(#p48687aa643)" style="fill: #1f77b4"/>
   </g>
   <g id="patch_26">
    <path d="M 475.9965 135.52 
L 491.1975 135.52 
L 491.1975 68.488944 
L 475.9965 68.488944 
z
" clip-path="url(#p48687aa643)" style="fill: #1f77b4"/>
   </g>
   <g id="patch_27">
    <path d="M 506.3985 135.52 
L 521.5995 135.52 
L 521.5995 126.582526 
L 506.3985 126.582526 
z
" clip-path="url(#p48687aa643)" style="fill: #1f77b4"/>
   </g>
   <g id="patch_28">
    <path d="M 377.19 135.52 
L 377.19 27.6 
" style="fill: none; stroke: #000000; stroke-width: 0.8; stroke-linejoin: miter; stroke-linecap: square"/>
   </g>
   <g id="patch_29">
    <path d="M 529.2 135.52 
L 529.2 27.6 
" style="fill: none; stroke: #000000; stroke-width: 0.8; stroke-linejoin: miter; stroke-linecap: square"/>
   </g>
   <g id="patch_30">
    <path d="M 377.19 135.52 
L 529.2 135.52 
" style="fill: none; stroke: #000000; stroke-width: 0.8; stroke-linejoin: miter; stroke-linecap: square"/>
   </g>
   <g id="patch_31">
    <path d="M 377.19 27.6 
L 529.2 27.6 
" style="fill: none; stroke: #000000; stroke-width: 0.8; stroke-linejoin: miter; stroke-linecap: square"/>
   </g>
   <g id="text_27">
    <!-- $I2$ -->
    <g transform="translate(446.955 21.6) scale(0.12 -0.12)">
     <use xlink:href="#DejaVuSerif-Italic-49" transform="translate(0 0.78125)"/>
     <use xlink:href="#DejaVuSerif-32" transform="translate(39.501953 0.78125)"/>
    </g>
   </g>
  </g>
 </g>
 <defs>
  <clipPath id="p3be28899d2">
   <rect x="44.57" y="27.6" width="152.01" height="107.92"/>
  </clipPath>
  <clipPath id="pe785dfae3e">
   <rect x="210.88" y="27.6" width="152.01" height="107.92"/>
  </clipPath>
  <clipPath id="p48687aa643">
   <rect x="377.19" y="27.6" width="152.01" height="107.92"/>
  </clipPath>
 </defs>
</svg>
