<svg width="1845" height="670" xmlns="http://www.w3.org/2000/svg" xmlns:xlink="http://www.w3.org/1999/xlink" overflow="hidden"><defs><clipPath id="clip0"><rect x="2225" y="1574" width="1845" height="670"/></clipPath></defs><g clip-path="url(#clip0)" transform="translate(-2225 -1574)"><text font-family="Arial,Arial_MSFontService,sans-serif" font-weight="400" font-size="46" transform="matrix(0.805741 0.592268 -0.592268 0.805741 3315.76 2078)">IRIS</text><path d="M2464.5 1927.58C2464.5 1915.38 2474.38 1905.5 2486.58 1905.5L3166.42 1905.5C3178.62 1905.5 3188.5 1915.38 3188.5 1927.58L3188.5 2134.42C3188.5 2146.62 3178.62 2156.5 3166.42 2156.5L2486.58 2156.5C2474.38 2156.5 2464.5 2146.62 2464.5 2134.42Z" stroke="#000000" stroke-width="1.14583" stroke-miterlimit="8" fill="#FFFFFF" fill-rule="evenodd"/><text font-family="Arial,Arial_MSFontService,sans-serif" font-weight="400" font-size="32" transform="matrix(1 0 0 1 2540.55 1987)">CONSOMMATION_ELECTRIQUE_EXT<tspan font-size="46" x="-36.6668" y="107">consototale</tspan></text><path d="M3291.5 2030.5C3291.5 2018.9 3301.57 2009.5 3314 2009.5 3326.43 2009.5 3336.5 2018.9 3336.5 2030.5 3336.5 2042.1 3326.43 2051.5 3314 2051.5 3301.57 2051.5 3291.5 2042.1 3291.5 2030.5Z" stroke="#000000" stroke-width="1.14583" stroke-miterlimit="8" fill="#FFFFFF" fill-rule="evenodd"/><path d="M2299.5 2015.5C2299.5 2003.9 2309.57 1994.5 2322 1994.5 2334.43 1994.5 2344.5 2003.9 2344.5 2015.5 2344.5 2027.1 2334.43 2036.5 2322 2036.5 2309.57 2036.5 2299.5 2027.1 2299.5 2015.5Z" stroke="#000000" stroke-width="1.14583" stroke-miterlimit="8" fill="#FFFFFF" fill-rule="evenodd"/><path d="M2875.5 1774.5C2875.5 1762.9 2885.57 1753.5 2898 1753.5 2910.43 1753.5 2920.5 1762.9 2920.5 1774.5 2920.5 1786.1 2910.43 1795.5 2898 1795.5 2885.57 1795.5 2875.5 1786.1 2875.5 1774.5Z" stroke="#000000" stroke-width="1.14583" stroke-miterlimit="8" fill="#FFFFFF" fill-rule="evenodd"/><path d="M2898.5 1795.5 2898.5 1905.65" stroke="#000000" stroke-width="1.14583" stroke-miterlimit="8" fill="none" fill-rule="evenodd"/><path d="M0 0 102.959 0.000360892" stroke="#000000" stroke-width="1.14583" stroke-miterlimit="8" fill="none" fill-rule="evenodd" transform="matrix(-1 0 0 1 3291.46 2030.5)"/><path d="M0 0 119.522 0.112959" stroke="#000000" stroke-width="1.14583" stroke-miterlimit="8" fill="none" fill-rule="evenodd" transform="matrix(1 0 0 -1 2344.5 2015.61)"/><path d="M2875.5 1621.5C2875.5 1609.9 2885.57 1600.5 2898 1600.5 2910.43 1600.5 2920.5 1609.9 2920.5 1621.5 2920.5 1633.1 2910.43 1642.5 2898 1642.5 2885.57 1642.5 2875.5 1633.1 2875.5 1621.5Z" stroke="#000000" stroke-width="1.14583" stroke-miterlimit="8" fill="#FFFFFF" fill-rule="evenodd"/><path d="M2898.5 1642.5 2898.5 1752.65" stroke="#000000" stroke-width="1.14583" stroke-miterlimit="8" fill="none" fill-rule="evenodd"/><text font-family="Arial,Arial_MSFontService,sans-serif" font-weight="400" font-size="46" transform="matrix(1 0 0 1 3150.96 1784)">categorieconsommation</text><path d="M3091.5 1774.5C3091.5 1762.9 3101.57 1753.5 3114 1753.5 3126.43 1753.5 3136.5 1762.9 3136.5 1774.5 3136.5 1786.1 3126.43 1795.5 3114 1795.5 3101.57 1795.5 3091.5 1786.1 3091.5 1774.5Z" stroke="#000000" stroke-width="1.14583" stroke-miterlimit="8" fill="#FFFFFF" fill-rule="evenodd"/><path d="M3113.5 1795.5 3113.5 1905.65" stroke="#000000" stroke-width="1.14583" stroke-miterlimit="8" fill="none" fill-rule="evenodd"/><text font-family="Arial,Arial_MSFontService,sans-serif" font-weight="400" font-size="46" transform="matrix(1 0 0 1 2583.01 1789)">secteurNAF2<tspan font-size="46" x="0" y="-154">grandsecteur</tspan><tspan font-size="46" x="-325.161" y="288">annee</tspan></text><path d="M3438.5 2030.5C3438.5 2018.9 3448.57 2009.5 3461 2009.5 3473.43 2009.5 3483.5 2018.9 3483.5 2030.5 3483.5 2042.1 3473.43 2051.5 3461 2051.5 3448.57 2051.5 3438.5 2042.1 3438.5 2030.5Z" stroke="#000000" stroke-width="1.14583" stroke-miterlimit="8" fill="#FFFFFF" fill-rule="evenodd"/><path d="M0 0 102.96 0.000360892" stroke="#000000" stroke-width="1.14583" stroke-miterlimit="8" fill="none" fill-rule="evenodd" transform="matrix(-1 0 0 1 3439.46 2030.5)"/><path d="M3586.5 2030.5C3586.5 2018.9 3596.57 2009.5 3609 2009.5 3621.43 2009.5 3631.5 2018.9 3631.5 2030.5 3631.5 2042.1 3621.43 2051.5 3609 2051.5 3596.57 2051.5 3586.5 2042.1 3586.5 2030.5Z" stroke="#000000" stroke-width="1.14583" stroke-miterlimit="8" fill="#FFFFFF" fill-rule="evenodd"/><path d="M0 0 102.96 0.000360892" stroke="#000000" stroke-width="1.14583" stroke-miterlimit="8" fill="none" fill-rule="evenodd" transform="matrix(-1 0 0 1 3586.46 2030.5)"/><path d="M3734.5 2030.5C3734.5 2018.9 3744.57 2009.5 3757 2009.5 3769.43 2009.5 3779.5 2018.9 3779.5 2030.5 3779.5 2042.1 3769.43 2051.5 3757 2051.5 3744.57 2051.5 3734.5 2042.1 3734.5 2030.5Z" stroke="#000000" stroke-width="1.14583" stroke-miterlimit="8" fill="#FFFFFF" fill-rule="evenodd"/><path d="M0 0 102.96 0.000360892" stroke="#000000" stroke-width="1.14583" stroke-miterlimit="8" fill="none" fill-rule="evenodd" transform="matrix(-1 0 0 1 3734.46 2030.5)"/><path d="M3882.5 2030.5C3882.5 2018.9 3892.57 2009.5 3905 2009.5 3917.43 2009.5 3927.5 2018.9 3927.5 2030.5 3927.5 2042.1 3917.43 2051.5 3905 2051.5 3892.57 2051.5 3882.5 2042.1 3882.5 2030.5Z" stroke="#000000" stroke-width="1.14583" stroke-miterlimit="8" fill="#FFFFFF" fill-rule="evenodd"/><path d="M0 0 102.96 0.000360892" stroke="#000000" stroke-width="1.14583" stroke-miterlimit="8" fill="none" fill-rule="evenodd" transform="matrix(-1 0 0 1 3882.46 2030.5)"/><text font-family="Arial,Arial_MSFontService,sans-serif" font-weight="400" font-size="46" transform="matrix(0.805741 0.592268 -0.592268 0.805741 3457.42 2076)">commune<tspan font-size="46" x="119.099" y="-77.6163">EPCI</tspan><tspan font-size="46" x="360.169" y="-262.264">region</tspan></text><path d="M3689.5 1933.5C3689.5 1921.9 3699.57 1912.5 3712 1912.5 3724.43 1912.5 3734.5 1921.9 3734.5 1933.5 3734.5 1945.1 3724.43 1954.5 3712 1954.5 3699.57 1954.5 3689.5 1945.1 3689.5 1933.5Z" stroke="#000000" stroke-width="1.14583" stroke-miterlimit="8" fill="#FFFFFF" fill-rule="evenodd"/><path d="M0 0 71.2254 67.3259" stroke="#000000" stroke-width="1.14583" stroke-miterlimit="8" fill="none" fill-rule="evenodd" transform="matrix(-1 0 0 1 3696.73 1948.5)"/><path d="M3392.5 1933C3392.5 1921.13 3402.57 1911.5 3415 1911.5 3427.43 1911.5 3437.5 1921.13 3437.5 1933 3437.5 1944.87 3427.43 1954.5 3415 1954.5 3402.57 1954.5 3392.5 1944.87 3392.5 1933Z" stroke="#000000" stroke-width="1.14583" stroke-miterlimit="8" fill="#FFFFFF" fill-rule="evenodd"/><path d="M0 0 69.6241 67.894" stroke="#000000" stroke-width="1.14583" stroke-miterlimit="8" fill="none" fill-rule="evenodd" transform="matrix(-1 0 0 1 3399.12 1947.5)"/><text font-family="Arial,Arial_MSFontService,sans-serif" font-weight="400" font-size="46" transform="matrix(1 0 0 1 3746.64 1940)">typeEPCI<tspan font-size="46" x="-297.907" y="3">typeIRIS</tspan><tspan font-size="46" x="-648.007" y="260">population</tspan></text><path d="M3313.5 2051.5 3315.24 2210.28" stroke="#000000" stroke-width="1.14583" stroke-miterlimit="8" fill="none" fill-rule="evenodd"/><path d="M3113.5 2210.5 3314.43 2210.5" stroke="#000000" stroke-width="1.14583" stroke-miterlimit="8" fill="none" fill-rule="evenodd"/><path d="M0 0 723.28 0.000360892" stroke="#000000" stroke-width="1.14583" stroke-miterlimit="8" fill="none" fill-rule="evenodd" transform="matrix(-1 0 0 1 3187.78 2042.5)"/></g></svg>