<svg width="1845" height="705" xmlns="http://www.w3.org/2000/svg" xmlns:xlink="http://www.w3.org/1999/xlink" overflow="hidden"><defs><clipPath id="clip0"><rect x="859" y="408" width="1845" height="705"/></clipPath></defs><g clip-path="url(#clip0)" transform="translate(-859 -408)"><text font-family="Arial,Arial_MSFontService,sans-serif" font-weight="400" font-size="46" transform="matrix(0.805741 0.592268 -0.592268 0.805741 1949.67 912)">IRIS</text><path d="M1098.5 761.575C1098.5 749.383 1108.38 739.5 1120.58 739.5L1800.42 739.5C1812.62 739.5 1822.5 749.383 1822.5 761.575L1822.5 968.424C1822.5 980.616 1812.62 990.5 1800.42 990.5L1120.58 990.5C1108.38 990.5 1098.5 980.616 1098.5 968.424Z" stroke="#000000" stroke-width="1.14583" stroke-miterlimit="8" fill="#FFFFFF" fill-rule="evenodd"/><text font-family="Arial,Arial_MSFontService,sans-serif" font-weight="400" font-size="41" transform="matrix(1 0 0 1 1143.51 825)">CONSOMMATION_ELECTRIQUE<tspan font-size="46" x="-5.72925" y="109">consototale</tspan></text><path d="M1925.5 865C1925.5 853.126 1935.35 843.5 1947.5 843.5 1959.65 843.5 1969.5 853.126 1969.5 865 1969.5 876.874 1959.65 886.5 1947.5 886.5 1935.35 886.5 1925.5 876.874 1925.5 865Z" stroke="#000000" stroke-width="1.14583" stroke-miterlimit="8" fill="#FFFFFF" fill-rule="evenodd"/><path d="M933.5 850C933.5 838.126 943.574 828.5 956 828.5 968.427 828.5 978.5 838.126 978.5 850 978.5 861.874 968.427 871.5 956 871.5 943.574 871.5 933.5 861.874 933.5 850Z" stroke="#000000" stroke-width="1.14583" stroke-miterlimit="8" fill="#FFFFFF" fill-rule="evenodd"/><path d="M1509.5 608.5C1509.5 596.902 1519.57 587.5 1532 587.5 1544.43 587.5 1554.5 596.902 1554.5 608.5 1554.5 620.098 1544.43 629.5 1532 629.5 1519.57 629.5 1509.5 620.098 1509.5 608.5Z" stroke="#000000" stroke-width="1.14583" stroke-miterlimit="8" fill="#FFFFFF" fill-rule="evenodd"/><path d="M1532.5 629.5 1532.5 739.646" stroke="#000000" stroke-width="1.14583" stroke-miterlimit="8" fill="none" fill-rule="evenodd"/><path d="M0 0 102.959 0.000360892" stroke="#000000" stroke-width="1.14583" stroke-miterlimit="8" fill="none" fill-rule="evenodd" transform="matrix(-1 0 0 1 1925.46 865.5)"/><path d="M0 0 119.522 0.112959" stroke="#000000" stroke-width="1.14583" stroke-miterlimit="8" fill="none" fill-rule="evenodd" transform="matrix(1 0 0 -1 978.5 849.613)"/><path d="M1509.5 456C1509.5 444.126 1519.57 434.5 1532 434.5 1544.43 434.5 1554.5 444.126 1554.5 456 1554.5 467.874 1544.43 477.5 1532 477.5 1519.57 477.5 1509.5 467.874 1509.5 456Z" stroke="#000000" stroke-width="1.14583" stroke-miterlimit="8" fill="#FFFFFF" fill-rule="evenodd"/><path d="M1532.5 477.5 1532.5 587.646" stroke="#000000" stroke-width="1.14583" stroke-miterlimit="8" fill="none" fill-rule="evenodd"/><text font-family="Arial,Arial_MSFontService,sans-serif" font-weight="400" font-size="46" transform="matrix(1 0 0 1 1784.86 618)">categorieconsommation</text><path d="M1725.5 608.5C1725.5 596.902 1735.57 587.5 1748 587.5 1760.43 587.5 1770.5 596.902 1770.5 608.5 1770.5 620.098 1760.43 629.5 1748 629.5 1735.57 629.5 1725.5 620.098 1725.5 608.5Z" stroke="#000000" stroke-width="1.14583" stroke-miterlimit="8" fill="#FFFFFF" fill-rule="evenodd"/><path d="M1747.5 629.5 1747.5 739.646" stroke="#000000" stroke-width="1.14583" stroke-miterlimit="8" fill="none" fill-rule="evenodd"/><text font-family="Arial,Arial_MSFontService,sans-serif" font-weight="400" font-size="46" transform="matrix(1 0 0 1 1216.92 623)">secteurNAF2<tspan font-size="46" x="0" y="-154">grandsecteur</tspan><tspan font-size="46" x="-325.161" y="288">annee</tspan></text><path d="M2072.5 865C2072.5 853.126 2082.57 843.5 2095 843.5 2107.43 843.5 2117.5 853.126 2117.5 865 2117.5 876.874 2107.43 886.5 2095 886.5 2082.57 886.5 2072.5 876.874 2072.5 865Z" stroke="#000000" stroke-width="1.14583" stroke-miterlimit="8" fill="#FFFFFF" fill-rule="evenodd"/><path d="M0 0 102.96 0.000360892" stroke="#000000" stroke-width="1.14583" stroke-miterlimit="8" fill="none" fill-rule="evenodd" transform="matrix(-1 0 0 1 2072.46 865.5)"/><path d="M2220.5 865C2220.5 853.126 2230.57 843.5 2243 843.5 2255.43 843.5 2265.5 853.126 2265.5 865 2265.5 876.874 2255.43 886.5 2243 886.5 2230.57 886.5 2220.5 876.874 2220.5 865Z" stroke="#000000" stroke-width="1.14583" stroke-miterlimit="8" fill="#FFFFFF" fill-rule="evenodd"/><path d="M0 0 102.96 0.000360892" stroke="#000000" stroke-width="1.14583" stroke-miterlimit="8" fill="none" fill-rule="evenodd" transform="matrix(-1 0 0 1 2220.46 865.5)"/><path d="M2368.5 865C2368.5 853.126 2378.57 843.5 2391 843.5 2403.43 843.5 2413.5 853.126 2413.5 865 2413.5 876.874 2403.43 886.5 2391 886.5 2378.57 886.5 2368.5 876.874 2368.5 865Z" stroke="#000000" stroke-width="1.14583" stroke-miterlimit="8" fill="#FFFFFF" fill-rule="evenodd"/><path d="M0 0 102.96 0.000360892" stroke="#000000" stroke-width="1.14583" stroke-miterlimit="8" fill="none" fill-rule="evenodd" transform="matrix(-1 0 0 1 2368.46 865.5)"/><path d="M2516.5 865C2516.5 853.126 2526.57 843.5 2539 843.5 2551.43 843.5 2561.5 853.126 2561.5 865 2561.5 876.874 2551.43 886.5 2539 886.5 2526.57 886.5 2516.5 876.874 2516.5 865Z" stroke="#000000" stroke-width="1.14583" stroke-miterlimit="8" fill="#FFFFFF" fill-rule="evenodd"/><path d="M0 0 102.96 0.000360892" stroke="#000000" stroke-width="1.14583" stroke-miterlimit="8" fill="none" fill-rule="evenodd" transform="matrix(-1 0 0 1 2516.46 865.5)"/><text font-family="Arial,Arial_MSFontService,sans-serif" font-weight="400" font-size="46" transform="matrix(0.805741 0.592268 -0.592268 0.805741 2091.32 910)">commune<tspan font-size="46" x="119.099" y="-77.6163">EPCI</tspan><tspan font-size="46" x="242.092" y="-172.988">departement</tspan><tspan font-size="46" x="360.169" y="-262.264">region</tspan></text><path d="M2323.5 768C2323.5 756.126 2333.57 746.5 2346 746.5 2358.43 746.5 2368.5 756.126 2368.5 768 2368.5 779.874 2358.43 789.5 2346 789.5 2333.57 789.5 2323.5 779.874 2323.5 768Z" stroke="#000000" stroke-width="1.14583" stroke-miterlimit="8" fill="#FFFFFF" fill-rule="evenodd"/><path d="M0 0 71.2254 67.3259" stroke="#000000" stroke-width="1.14583" stroke-miterlimit="8" fill="none" fill-rule="evenodd" transform="matrix(-1 0 0 1 2330.73 782.5)"/><path d="M2026.5 767.5C2026.5 755.902 2036.57 746.5 2049 746.5 2061.43 746.5 2071.5 755.902 2071.5 767.5 2071.5 779.098 2061.43 788.5 2049 788.5 2036.57 788.5 2026.5 779.098 2026.5 767.5Z" stroke="#000000" stroke-width="1.14583" stroke-miterlimit="8" fill="#FFFFFF" fill-rule="evenodd"/><path d="M0 0 69.6241 67.894" stroke="#000000" stroke-width="1.14583" stroke-miterlimit="8" fill="none" fill-rule="evenodd" transform="matrix(-1 0 0 1 2033.12 782.5)"/><text font-family="Arial,Arial_MSFontService,sans-serif" font-weight="400" font-size="46" transform="matrix(1 0 0 1 2380.54 774)">typeEPCI<tspan font-size="46" x="-297.907" y="4">typeIRIS</tspan><tspan font-size="46" x="-648.007" y="260">population</tspan></text><path d="M1947.5 886.5 1949.24 1045.28" stroke="#000000" stroke-width="1.14583" stroke-miterlimit="8" fill="none" fill-rule="evenodd"/><path d="M1747.5 1045.5 1948.44 1045.5" stroke="#000000" stroke-width="1.14583" stroke-miterlimit="8" fill="none" fill-rule="evenodd"/><path d="M0 0 723.28 0.000360892" stroke="#000000" stroke-width="1.14583" stroke-miterlimit="8" fill="none" fill-rule="evenodd" transform="matrix(-1 0 0 1 1821.78 876.5)"/></g></svg>