<svg width="444" height="109" xmlns="http://www.w3.org/2000/svg" xmlns:xlink="http://www.w3.org/1999/xlink" overflow="hidden"><defs><clipPath id="clip0"><path d="M305 377 749 377 749 486 305 486Z" fill-rule="evenodd" clip-rule="evenodd"/></clipPath></defs><g clip-path="url(#clip0)" transform="translate(-305 -377)"><path d="M412.5 441C412.5 438.515 414.739 436.5 417.5 436.5 420.261 436.5 422.5 438.515 422.5 441 422.5 443.485 420.261 445.5 417.5 445.5 414.739 445.5 412.5 443.485 412.5 441Z" stroke="#000000" stroke-width="1.33333" stroke-miterlimit="8" fill="none" fill-rule="evenodd"/><path d="M353.5 440.5C353.5 437.739 355.515 435.5 358 435.5 360.485 435.5 362.5 437.739 362.5 440.5 362.5 443.261 360.485 445.5 358 445.5 355.515 445.5 353.5 443.261 353.5 440.5Z" stroke="#000000" stroke-width="1.33333" stroke-miterlimit="8" fill="none" fill-rule="evenodd"/><path d="M453.786 441.501 422.5 441.5" stroke="#000000" stroke-width="0.666667" stroke-miterlimit="8" fill="none" fill-rule="evenodd"/><path d="M412.401 441.389 362.5 440.5" stroke="#000000" stroke-width="0.666667" stroke-miterlimit="8" fill="none" fill-rule="evenodd"/><text font-family="Arial,Arial_MSFontService,sans-serif" font-weight="400" font-size="16" transform="translate(390.025 463)">geoId<tspan x="-74.6633" y="0">continent</tspan></text><path d="M592.5 441C592.5 438.515 594.515 436.5 597 436.5 599.485 436.5 601.5 438.515 601.5 441 601.5 443.485 599.485 445.5 597 445.5 594.515 445.5 592.5 443.485 592.5 441Z" stroke="#000000" stroke-width="1.33333" stroke-miterlimit="8" fill="none" fill-rule="evenodd"/><path d="M718.5 441C718.5 438.515 720.515 436.5 723 436.5 725.485 436.5 727.5 438.515 727.5 441 727.5 443.485 725.485 445.5 723 445.5 720.515 445.5 718.5 443.485 718.5 441Z" stroke="#000000" stroke-width="1.33333" stroke-miterlimit="8" fill="none" fill-rule="evenodd"/><path d="M664.5 441C664.5 438.515 666.515 436.5 669 436.5 671.485 436.5 673.5 438.515 673.5 441 673.5 443.485 671.485 445.5 669 445.5 666.515 445.5 664.5 443.485 664.5 441Z" stroke="#000000" stroke-width="1.33333" stroke-miterlimit="8" fill="none" fill-rule="evenodd"/><path d="M0 0 22.6388 0.0627822" stroke="#000000" stroke-width="0.666667" stroke-miterlimit="8" fill="none" fill-rule="evenodd" transform="matrix(1 0 0 -1 569.5 441.563)"/><path d="M601.5 441.5 664.024 441.5" stroke="#000000" stroke-width="0.666667" stroke-miterlimit="8" fill="none" fill-rule="evenodd"/><text font-family="Arial,Arial_MSFontService,sans-serif" font-weight="400" font-size="16" transform="translate(575.918 464)">dateRep<tspan x="70.1023" y="0">month</tspan><tspan x="131.409" y="0">year</tspan></text><path d="M453.5 412C453.5 403.992 459.992 397.5 468 397.5L555 397.5C563.008 397.5 569.5 403.992 569.5 412L569.5 470C569.5 478.008 563.008 484.5 555 484.5L468 484.5C459.992 484.5 453.5 478.008 453.5 470Z" stroke="#000000" stroke-linejoin="round" stroke-miterlimit="10" fill="#FFFFFF" fill-rule="evenodd"/><text font-family="Arial,Arial_MSFontService,sans-serif" font-weight="400" font-size="16" transform="translate(466.844 437)">Cases<tspan x="0" y="19">Deaths</tspan></text><path d="M453.5 419.5 569.449 419.5" stroke="#000000" stroke-width="0.666667" stroke-miterlimit="8" fill="#FFFFFF" fill-rule="evenodd"/><text font-family="Arial,Arial_MSFontService,sans-serif" font-weight="700" font-size="16" transform="translate(475.46 415)">COVID<tspan x="50.6667" y="0">-</tspan><tspan x="56" y="0">19</tspan></text><path d="M673.5 441.5 718.097 441.5" stroke="#000000" stroke-width="0.666667" stroke-miterlimit="8" fill="none" fill-rule="evenodd"/><text font-family="Arial,Arial_MSFontService,sans-serif" font-weight="400" font-size="16" transform="translate(340.283 398)">popData2018</text><path d="M412.341 440.787 361.5 406.5" stroke="#000000" stroke-width="0.666667" stroke-miterlimit="8" fill="none" fill-rule="evenodd"/><path d="M0 0 54.0995 0.000104987" stroke="#000000" stroke-width="0.666667" stroke-miterlimit="8" fill="none" fill-rule="evenodd" transform="matrix(-1 -8.74228e-08 -8.74228e-08 1 415.6 406.5)"/></g></svg>