<svg width="1436" height="330" xmlns="http://www.w3.org/2000/svg" xmlns:xlink="http://www.w3.org/1999/xlink" overflow="hidden"><defs><clipPath id="clip0"><rect x="908" y="1649" width="1436" height="330"/></clipPath></defs><g clip-path="url(#clip0)" transform="translate(-908 -1649)"><path d="M0 0 397.887 0.000360892" stroke="#000000" stroke-width="1.14583" stroke-miterlimit="8" fill="none" fill-rule="evenodd" transform="matrix(-1 0 0 1 1383.39 1754.5)"/><text font-family="Arial,Arial_MSFontService,sans-serif" font-weight="400" font-size="46" transform="matrix(0.805741 0.592268 -0.592268 0.805741 2015.91 1805)">country</text><path d="M1990.5 1754.5C1990.5 1742.9 2000.57 1733.5 2013 1733.5 2025.43 1733.5 2035.5 1742.9 2035.5 1754.5 2035.5 1766.1 2025.43 1775.5 2013 1775.5 2000.57 1775.5 1990.5 1766.1 1990.5 1754.5Z" stroke="#000000" stroke-width="1.14583" stroke-miterlimit="8" fill="#FFFFFF" fill-rule="evenodd"/><path d="M0 0 102.96 0.000360892" stroke="#000000" stroke-width="1.14583" stroke-miterlimit="8" fill="none" fill-rule="evenodd" transform="matrix(-1 0 0 1 1990.46 1754.5)"/><path d="M2138.5 1754.5C2138.5 1742.9 2148.57 1733.5 2161 1733.5 2173.43 1733.5 2183.5 1742.9 2183.5 1754.5 2183.5 1766.1 2173.43 1775.5 2161 1775.5 2148.57 1775.5 2138.5 1766.1 2138.5 1754.5Z" stroke="#000000" stroke-width="1.14583" stroke-miterlimit="8" fill="#FFFFFF" fill-rule="evenodd"/><path d="M0 0 102.96 0.000360892" stroke="#000000" stroke-width="1.14583" stroke-miterlimit="8" fill="none" fill-rule="evenodd" transform="matrix(-1 0 0 1 2138.46 1754.5)"/><text font-family="Arial,Arial_MSFontService,sans-serif" font-weight="400" font-size="46" transform="matrix(0.805741 0.592268 -0.592268 0.805741 2138.14 1805)">continent</text><text font-family="Arial,Arial_MSFontService,sans-serif" font-weight="400" font-size="46" transform="matrix(1 0 0 1 1786.16 1941)">population</text><path d="M2013.5 1775.5 2013.5 1952.39" stroke="#000000" stroke-width="1.14583" stroke-miterlimit="8" fill="none" fill-rule="evenodd"/><path d="M1783.5 1956.5 2015 1956.5" stroke="#000000" stroke-width="1.14583" stroke-miterlimit="8" fill="none" fill-rule="evenodd"/><path d="M1383.5 1677.03C1383.5 1667.9 1390.9 1660.5 1400.03 1660.5L1873.97 1660.5C1883.1 1660.5 1890.5 1667.9 1890.5 1677.03L1890.5 1831.97C1890.5 1841.1 1883.1 1848.5 1873.97 1848.5L1400.03 1848.5C1390.9 1848.5 1383.5 1841.1 1383.5 1831.97Z" stroke="#000000" stroke-width="1.14583" stroke-miterlimit="8" fill="#FFFFFF" fill-rule="evenodd"/><text font-family="Arial,Arial_MSFontService,sans-serif" font-weight="700" font-size="55" transform="matrix(1 0 0 1 1518.91 1719)">COVID19<tspan font-weight="400" font-size="46" x="-98.2438" y="58">deaths</tspan><tspan font-weight="400" font-size="46" x="-98.2438" y="113">cases</tspan></text><path d="M0 0 504.534 0.000360892" stroke="#000000" stroke-width="1.14583" stroke-miterlimit="8" fill="none" fill-rule="evenodd" transform="matrix(-1 0 0 1 1888.03 1728.5)"/><text font-family="Arial,Arial_MSFontService,sans-serif" font-weight="400" font-size="46" transform="matrix(0.805741 0.592268 -0.592268 0.805741 952.878 1805)">year</text><path d="M1095.5 1754.5C1095.5 1742.9 1105.57 1733.5 1118 1733.5 1130.43 1733.5 1140.5 1742.9 1140.5 1754.5 1140.5 1766.1 1130.43 1775.5 1118 1775.5 1105.57 1775.5 1095.5 1766.1 1095.5 1754.5Z" stroke="#000000" stroke-width="1.14583" stroke-miterlimit="8" fill="#FFFFFF" fill-rule="evenodd"/><path d="M1236.5 1754.5C1236.5 1742.9 1246.57 1733.5 1259 1733.5 1271.43 1733.5 1281.5 1742.9 1281.5 1754.5 1281.5 1766.1 1271.43 1775.5 1259 1775.5 1246.57 1775.5 1236.5 1766.1 1236.5 1754.5Z" stroke="#000000" stroke-width="1.14583" stroke-miterlimit="8" fill="#FFFFFF" fill-rule="evenodd"/><text font-family="Arial,Arial_MSFontService,sans-serif" font-weight="400" font-size="46" transform="matrix(0.805741 0.592268 -0.592268 0.805741 1234.41 1800)">week</text><path d="M955.5 1754.5C955.5 1742.9 965.574 1733.5 978 1733.5 990.427 1733.5 1000.5 1742.9 1000.5 1754.5 1000.5 1766.1 990.427 1775.5 978 1775.5 965.574 1775.5 955.5 1766.1 955.5 1754.5Z" stroke="#000000" stroke-width="1.14583" stroke-miterlimit="8" fill="#FFFFFF" fill-rule="evenodd"/><text font-family="Arial,Arial_MSFontService,sans-serif" font-weight="400" font-size="46" transform="matrix(0.805741 0.592268 -0.592268 0.805741 1085.97 1805)">month</text></g></svg>